<svg width="80" height="80" viewBox="0 0 80 80" fill="none" xmlns="http://www.w3.org/2000/svg">
<g filter="url(#filter0_ii_404_2861)">
<circle cx="40" cy="39.9998" r="40" fill="black"/>
</g>
<circle cx="40" cy="39.9998" r="39" stroke="url(#paint0_linear_404_2861)" stroke-width="2"/>
<path d="M50.5042 16.2768C50.6147 14.6566 50.2835 13.7746 49.3483 13.3044M49.3483 13.3044C48.1865 12.7204 46.272 12.8962 45.2199 14.5429C42.974 18.3741 41.752 20.5979 41.4217 21.231C41.3228 21.4515 41.2223 21.6716 41.1202 21.8915M49.3483 13.3044C47.862 13.2034 45.6327 17.1026 45.6327 17.1026C45.6327 17.1026 42.9555 20.2683 41.1202 21.8915M41.1202 21.8915C34.1219 36.9642 19.8829 50.4309 15 54.093M46.2107 16.1943C47.2105 16.6342 47.9601 16.4742 48.7703 15.864C49.5282 15.2551 49.9863 15.3037 50.5042 16.1943M43.7336 20.1576C43.7336 20.1576 48.7703 24.0383 48.1923 24.3685M47.284 22.1392C49.5561 24.5059 49.705 24.8419 49.5959 25.1116M48.5226 25.8548C47.3163 26.9795 46.7231 27.0925 45.7978 26.4327M44.1465 21.0658C45.072 21.943 45.2321 22.6956 44.7244 24.6162M42.7428 20.9007C41.9997 20.4878 42.1648 29.3226 42.4951 30.1483M44.4767 23.0474C44.7244 24.1208 44.3116 27.1758 44.3116 28.5795M43.2382 30.8088C45.4138 32.517 47.4492 33.5336 49.3482 34.6895C51.1465 35.7841 50.7978 35.6942 50.7557 35.6815M50.7557 35.6815C50.7533 35.6808 50.7519 35.6803 50.7519 35.6803M50.7557 35.6815L52.073 36.0932L51.5776 35.4326M51.9079 35.1024H52.9812M49.7611 33.1207C47.284 32.0474 45.7978 29.6529 43.8988 28.5795M43.2382 32.0474C39.9355 36.0932 44.4767 40.5519 42.1648 43.3592M26.8898 56.2398C36.1374 55.3315 42.1648 50.0472 44.7245 42.6986M43.7337 47.5701C39.0664 55.4181 34.6512 58.2214 26.8898 58.9645M45.3024 46.4142C41.5869 58.0563 30.3576 64.414 29.0366 61.937M45.8804 46.7445C45.8804 53.3499 42.1648 59.9553 38.8621 60.4507M42.6603 61.6067C44.3406 59.6261 45.0815 58.1538 45.8804 54.5884M47.1189 43.6069C47.6969 53.9279 46.541 58.9645 46.2107 61.0287M48.2749 46.4142C49.1806 52.5472 49.7315 55.9405 51.0822 61.6067M51.0822 54.2581C51.5528 57.2139 51.9367 58.8334 52.9812 61.6067M52.9812 61.6067C52.5977 62.789 52.1905 62.6372 50.8345 62.1021C50.5868 62.6801 49.8755 62.7792 49.3482 61.937C48.2467 63.254 47.5253 63.4512 45.8804 61.937C44.2979 62.7291 43.4579 62.9569 42.1648 62.4324M52.9812 61.6067C53.5864 62.3514 54.2198 62.2672 54.8803 61.6067M49.3482 35.4326C47.8716 40.7651 51.041 49.9285 54.8072 60.8173L54.8803 61.0287M40.6786 26.8456C32.7521 41.295 26.8898 52.3591 20.2018 54.5884M34.4035 40.3042C31.6787 46.4142 24.8256 56.8177 21.2752 56.2398M29.4494 53.7847C27.7606 54.3796 25.8994 54.8877 23.8348 55.3315M29.4494 53.7847C32.9981 51.8397 35.5328 44.7373 40.1007 31.5519M29.4494 53.7847C31.4319 53.0864 33.1767 52.2686 34.7337 51.2952M41.5869 44.35C39.7144 47.304 37.526 49.5497 34.7337 51.2952M34.7337 51.2952C37.2108 47.2399 39.275 44.35 40.6786 35.6803M15.578 55.3315C16.7204 55.9197 17.3703 55.8899 18.5504 55.0012M18.8807 55.7444C19.8481 56.2622 20.2936 56.2128 20.8623 55.3315M23.2568 56.2398C21.8531 57.3132 24.2476 56.9003 24.2476 56.9003M25.4036 56.9003C22.7614 57.8086 24.2476 58.9645 26.8898 58.3865M25.4036 59.4599C23.9707 60.9389 31.431 62.2514 36.3851 57.8911M33.0824 61.937C33.6604 62.7626 37.0426 63.2684 37.7888 61.0287M38.8621 61.0287C38.379 62.1058 40.1007 63.0929 41.5869 61.937M46.3375 17.032C46.3588 17.032 46.3166 17.128 46.3134 17.134C46.1971 17.352 45.9933 17.4933 45.8987 17.732C45.8676 17.8105 45.8565 17.8912 45.8824 17.9728C45.917 18.0821 46.0573 17.993 46.0907 17.9332C46.1559 17.8162 46.2277 17.689 46.272 17.5625C46.3017 17.4773 46.288 17.383 46.3178 17.298C46.3521 17.1999 46.4117 17.1069 46.4518 17.0102M50.3194 15.4505C50.1799 15.1154 49.772 15.0667 49.4562 15.1252C48.9237 15.2239 48.5062 15.5597 48.0435 15.8184C47.7024 16.009 47.3432 16.1176 46.9507 16.0672C46.8009 16.048 46.5711 15.9223 46.4414 15.9731M50.2342 14.9288C50.2133 14.901 50.2117 14.859 50.1911 14.8272C50.0639 14.6311 49.7908 14.5473 49.5671 14.5523C49.0868 14.563 48.5766 14.7775 48.1959 15.066C48.0267 15.1943 47.8373 15.2889 47.6826 15.4374C47.5391 15.575 47.3823 15.6432 47.2055 15.7309C46.9978 15.8339 46.8032 15.8879 46.5703 15.8879M50.0358 14.3355C49.9407 14.1091 49.792 14.0262 49.5316 14.0269C49.2224 14.0278 48.8218 14.2497 48.58 14.4285C48.4175 14.5486 48.2574 14.6711 48.089 14.7833C47.8858 14.9187 47.7096 15.1022 47.4948 15.2185C47.3246 15.3107 47.1592 15.4097 46.988 15.5006C46.8569 15.5702 46.6979 15.5819 46.5745 15.6531M49.5318 13.7308C49.579 13.6717 49.3812 13.637 49.3644 13.635C49.2553 13.6223 49.0807 13.6851 48.9878 13.7402C48.8533 13.8199 48.743 13.9328 48.6042 14.0088C48.4669 14.084 48.3161 14.1781 48.2015 14.2845C47.9415 14.5261 47.6813 14.7596 47.4537 15.0346C47.35 15.1599 47.2174 15.2804 47.0845 15.3754C46.9351 15.4823 46.7267 15.4682 46.5932 15.5897M50.2342 16.5426C50.2342 16.7399 49.9615 17.0548 49.8051 17.1754M49.5193 16.9021C49.4835 16.8561 49.6235 16.6709 49.494 16.6371C49.4136 16.6162 49.2979 16.6148 49.2177 16.6325C49.0174 16.6768 48.7719 16.5962 48.5737 16.5758M48.5529 16.9644C48.7393 17.0692 49.0133 17.3056 49.2242 17.1546M49.5765 17.1837C49.5954 17.1944 49.5366 17.2602 49.5314 17.2684C49.4474 17.4013 49.4305 17.5665 49.4099 17.7176C49.3849 17.9004 49.4286 18.0602 49.4432 18.2377C49.4506 18.3273 49.5448 18.4378 49.4091 18.484C49.2642 18.5332 49.1079 18.5719 48.9759 18.4545M48.7275 18.8608C48.7261 18.8484 48.7271 18.839 48.7297 18.8319M48.7297 18.8319C48.749 18.7791 48.8582 18.8591 48.7608 18.8708M48.7297 18.8319C48.7167 18.8332 48.7067 18.8392 48.7021 18.8461M48.7297 18.8319C48.7387 18.8309 48.7492 18.8322 48.7605 18.837C48.7729 18.8422 48.7697 18.8567 48.7608 18.8708M48.7608 18.8708C48.7533 18.8717 48.7446 18.8722 48.7346 18.8722C48.7225 18.8722 48.7139 18.8703 48.7082 18.8673M48.7608 18.8708C48.7506 18.887 48.733 18.9026 48.7229 18.9032C48.6881 18.9051 48.5783 18.9014 48.64 18.8534C48.67 18.8302 48.692 18.8338 48.7021 18.8461M48.7082 18.8673C48.6984 18.862 48.6972 18.8535 48.7021 18.8461M48.7082 18.8673C48.7091 18.8596 48.7069 18.8519 48.7021 18.8461M48.7082 18.8673C48.7068 18.8801 48.6969 18.893 48.6766 18.8972M48.7254 18.8649C48.5584 18.9164 48.3045 18.8341 48.156 18.7621M48.4553 19.0946L48.4573 19.0925M48.4885 19.0904C48.4827 19.0991 48.4578 19.1499 48.4434 19.1389C48.4408 19.1369 48.4363 19.1331 48.4315 19.1286M48.4315 19.1286C48.4283 19.1256 48.4249 19.1223 48.4218 19.1189M48.4315 19.1286C48.4373 19.1198 48.4779 19.1091 48.4224 19.097C48.4194 19.0964 48.417 19.0961 48.4152 19.0961M48.4315 19.1286C48.4303 19.1304 48.4306 19.1321 48.4333 19.1337C48.4454 19.1409 48.4314 19.1407 48.4218 19.1189M48.4218 19.1189C48.4114 19.1077 48.4039 19.0963 48.4152 19.0961M48.4218 19.1189C48.42 19.1148 48.4183 19.1099 48.417 19.1042C48.4164 19.1015 48.4158 19.0988 48.4152 19.0961M48.4152 19.0961C48.3889 18.9889 48.3187 18.8943 48.2485 18.8088M48.4833 19.0863C48.4456 19.0575 48.3708 18.8735 48.3503 18.8421M48.7015 18.8109C48.7766 18.8109 48.5538 18.8442 48.4788 18.8442C48.3885 18.8442 48.3134 18.8123 48.2267 18.8005M48.0594 19.6277C48.0807 19.6176 48.0091 19.7141 47.994 19.7274C47.8568 19.8483 47.6757 19.8601 47.5044 19.8139C47.2607 19.7482 47.0592 19.5656 46.9634 19.3336C46.9163 19.2193 46.8668 19.0955 46.804 18.9894C46.6901 18.7966 46.5067 18.7174 46.3209 18.6021M46.7968 19.3471C46.8117 19.3075 46.7936 19.4096 46.7904 19.4201C46.7101 19.6768 46.5161 19.8191 46.3602 20.0214C46.1107 20.345 46.3471 20.5785 46.6461 20.752M46.9209 21.1872C46.9209 21.1775 47.114 21.3807 47.1167 21.3847C47.1926 21.4987 47.2996 21.5979 47.3658 21.7157C47.4583 21.8802 47.4759 22.0164 47.5078 22.2026M50.7146 35.8935C50.7051 35.8909 50.6615 36.0018 50.6417 36.0327M51.8962 36.0046C51.88 35.7449 52.0115 36.5131 52.0955 36.7594M52.136 36.0663C52.0257 35.8236 52.2739 36.5828 52.3741 36.8299M53.2234 35.2919C53.1982 35.2279 53.1813 35.1669 53.1722 35.1089C53.1766 35.0933 53.1816 35.0773 53.1871 35.0611M52.681 35.2657C52.6868 35.2649 52.7382 35.2029 52.6611 35.2571C52.392 35.4462 52.5061 35.9215 52.4958 36.2089C52.49 36.3693 52.3673 36.4888 52.2422 36.5744C52.1382 36.6456 52.2731 36.5791 52.3228 36.5724C52.8407 36.5029 52.9725 35.8816 53.1589 35.4931M52.8803 35.3644C52.8659 35.1346 52.6893 35.7836 52.5999 35.9957M52.1983 33.1803C52.1554 33.1511 52.124 33.127 52.1954 33.0801C52.2729 33.0293 52.5712 32.9386 52.6026 33.0849C52.6287 33.2064 52.5939 33.3189 52.4911 33.3925C52.3633 33.4841 51.8217 33.5887 51.7907 33.3437C51.7608 33.1072 52.0476 32.9024 52.2199 32.7988C52.4361 32.6689 52.7767 32.5378 53.0295 32.6243C53.223 32.6905 53.3035 32.8691 53.2542 33.0617C53.1879 33.3205 52.9748 33.4898 52.7474 33.6093C52.4429 33.7692 51.87 33.9957 51.6013 33.662C51.2725 33.2536 51.6478 32.7875 52.0009 32.5828C52.343 32.3846 52.8425 32.2183 53.2377 32.3532C53.5201 32.4497 53.7155 32.7969 53.6154 33.079C53.4738 33.4784 53.1202 33.9049 52.716 34.0577C52.4168 34.1708 52.1191 34.1098 51.828 34.0041C51.7393 33.9719 51.6281 33.9344 51.5589 33.8655C51.4901 33.7969 51.5097 33.7316 51.4857 33.6473M54.2382 34.568C54.3776 34.4967 54.7206 34.3465 54.8438 34.4761C54.9911 34.631 54.9224 34.7165 54.7454 34.7908C54.591 34.8556 54.1835 35.0498 54.0483 34.8693C53.7962 34.5328 54.4989 34.1917 54.771 34.2174C54.9227 34.2318 55.0626 34.4341 55.0866 34.572C55.1289 34.8148 54.9491 34.9665 54.7604 35.0838C54.5095 35.2396 54.0935 35.3449 53.8533 35.1155C53.4911 34.7695 53.9022 34.2896 54.2568 34.1553C54.5677 34.0375 55.1514 33.8875 55.4038 34.2028C55.613 34.464 55.4916 34.818 55.3003 35.0478C55.0371 35.3638 54.5394 35.5713 54.132 35.5192C53.9259 35.4929 53.6785 35.4479 53.5335 35.2865C53.356 35.089 53.3119 34.7724 53.4184 34.532C53.6734 33.9564 54.4479 33.7256 55.0162 33.659C55.481 33.6046 55.9694 33.6892 56.252 34.0944C56.4726 34.4107 56.3869 34.7315 56.0991 34.9674C55.9331 35.1034 55.768 35.2353 55.5839 35.3466C54.9133 35.7524 54.187 35.572 53.4687 35.389M54.8553 32.2694C54.8399 32.2253 54.8706 32.2102 54.911 32.2015C54.9842 32.1857 55.0793 32.235 55.0698 32.3173C55.0625 32.3805 54.9278 32.4384 54.8757 32.4516C54.759 32.4814 54.5209 32.4942 54.474 32.3493C54.4137 32.1632 54.7877 32.024 54.9116 31.996C55.0983 31.9537 55.4457 31.9456 55.5082 32.1772C55.575 32.4246 55.2996 32.6043 55.0995 32.6785C54.8905 32.7561 54.4924 32.8172 54.3064 32.6492C54.0964 32.4598 54.1529 32.1605 54.3394 31.9682C54.6656 31.6321 55.2706 31.5568 55.6809 31.7451C56.0317 31.9062 56.0802 32.3204 55.8736 32.6062C55.6568 32.9063 55.2398 33.0601 54.8849 33.1176C54.6871 33.1497 54.515 33.2234 54.3202 33.144C54.1344 33.0682 53.9726 32.8162 53.9087 32.6303C53.7537 32.1798 54.2065 31.8191 54.4995 31.5499C54.7971 31.2765 55.4594 31.0668 55.8419 31.2563C56.1627 31.4153 56.3362 31.7081 56.3322 32.0672C56.3308 32.1954 56.2981 32.3357 56.2739 32.4615C56.1739 32.9809 55.5958 33.0632 55.1612 33.2187M52.4295 30.8696C52.4485 30.7747 52.6637 30.6644 52.7363 30.7105C52.9168 30.8248 52.6052 31.0652 52.4657 31.037C52.256 30.9946 52.1729 30.7946 52.2773 30.6194C52.4017 30.4105 52.6349 30.2273 52.894 30.2502C53.1677 30.2744 53.0811 30.6418 53.0148 30.8076C52.906 31.0794 52.6675 31.2834 52.3823 31.3376C52.0602 31.3989 51.5405 31.3207 51.6561 30.8664C51.7528 30.4861 52.1031 30.168 52.4725 30.0428C52.9455 29.8825 53.7755 29.9619 53.6804 30.6482C53.6631 30.7727 53.5495 30.8776 53.4823 30.978C53.4002 31.1009 53.3207 31.2348 53.1976 31.3214C52.8761 31.5475 52.5154 31.6429 52.1244 31.6398C51.7036 31.6365 51.1591 31.3872 51.2761 30.8778C51.3539 30.5392 51.7203 30.2018 51.985 29.9979C52.2318 29.8079 52.4885 29.6949 52.7997 29.666C53.2187 29.6271 53.5361 29.752 53.8371 30.0313C53.9645 30.1495 54.0833 30.2663 54.0626 30.4542C54.0041 30.9858 53.5388 31.2735 53.1256 31.5218M49.5696 29.927C49.6744 29.7989 49.8937 29.7449 49.9366 29.9623C50.0344 30.4588 49.1428 30.7349 49.0639 30.1484C49.0076 29.7298 49.4686 29.3103 49.8734 29.3236C50.3925 29.3407 50.5576 29.9397 50.3656 30.3547C50.3159 30.4621 50.2394 30.5612 50.1456 30.6473M50.1456 30.6473C49.8514 30.9171 49.3862 31.0579 49.0389 30.918C48.2811 30.6127 48.8569 29.5927 49.2142 29.1896C49.4524 28.921 49.7888 28.8778 50.1254 28.8401C50.4196 28.8071 50.6399 28.8343 50.8254 29.0868C50.9719 29.2863 51.0322 29.5636 50.9506 29.8048C50.8103 30.2193 50.4948 30.434 50.1456 30.6473ZM50.1456 30.6473C50.1064 30.6713 50.0667 30.6952 50.0267 30.7195M50.3424 31.8518C50.3451 31.8244 50.3687 31.8029 50.3921 31.7917C50.5255 31.7284 50.5887 31.828 50.5894 31.9471C50.5906 32.1627 49.7816 32.2121 50.0349 31.6904C50.208 31.334 50.7854 31.287 50.9849 31.6573C51.1985 32.0536 50.5213 32.4765 50.1981 32.4612C49.999 32.4517 49.756 32.3521 49.625 32.1954C49.4145 31.9434 49.7041 31.5638 49.8867 31.3963C50.2169 31.0933 50.8367 31.0096 51.1911 31.3305C51.6543 31.7499 51.4587 32.3859 50.9836 32.7198C50.8363 32.8233 50.674 32.8665 50.4963 32.871C50.3709 32.8742 50.2563 32.8254 50.1347 32.8018C49.8606 32.7487 49.8472 32.6486 49.7966 32.3834M52.1456 28.2246C52.1774 28.2246 52.2142 28.1978 52.2498 28.195C52.4134 28.1825 52.559 28.2622 52.4763 28.4497C52.4007 28.6209 52.1025 28.5595 51.9776 28.4843C51.7634 28.3555 52.1618 27.9771 52.2504 27.8979C52.4876 27.6859 52.844 27.6892 53.112 27.8538C53.3568 28.0042 53.143 28.3632 53.0168 28.5023C52.7665 28.7784 52.4149 28.9745 52.0349 28.9666C51.7027 28.9597 51.2815 28.8769 51.3145 28.449C51.3281 28.2723 51.4717 28.1192 51.5625 27.9756C51.5933 27.9267 51.6243 27.8815 51.6567 27.8396M51.6567 27.8396C51.7641 27.7009 51.8867 27.5999 52.0693 27.531C52.4682 27.3803 52.9225 27.1967 53.3355 27.3953C53.5729 27.5096 53.8215 27.7388 53.8834 28.0035C53.954 28.3053 53.6469 28.5931 53.4604 28.7878C53.2236 29.0351 52.899 29.2586 52.565 29.344C52.229 29.4299 51.9625 29.4357 51.6256 29.3682C51.3129 29.3055 50.901 29.1253 50.9239 28.7322C50.9401 28.4546 51.1884 28.1783 51.3938 28.0172C51.4797 27.9498 51.5673 27.8906 51.6567 27.8396ZM51.6567 27.8396C51.9755 27.6579 52.3184 27.581 52.6992 27.6108M54.6306 30.6142C54.5839 30.6206 54.7187 30.6743 54.7232 30.7213C54.7347 30.8413 54.7069 30.9499 54.5897 31.0026C54.2266 31.1658 54.0104 30.8555 54.1197 30.5283C54.2692 30.0804 54.778 29.9356 55.1498 30.2231C55.3007 30.3398 55.3743 30.5392 55.3807 30.724C55.3877 30.9279 55.2651 30.9855 55.1513 31.1492M54.3818 31.4638C54.1036 31.4813 53.9549 31.2437 53.8743 31.01M54.0256 30.0245C54.1466 29.9277 54.3478 29.8657 54.5023 29.831C54.9506 29.7305 55.4133 29.7523 55.7507 30.106C55.9214 30.285 56.0387 30.4893 55.9582 30.7405C55.9033 30.9115 55.7867 31.0988 55.6281 31.1853M53.5794 29.8349C53.5593 29.8351 53.5716 29.8469 53.5843 29.8469C53.647 29.8469 53.7892 29.7182 53.8357 29.6927C54.2947 29.4402 54.8794 29.3215 55.4014 29.3878C55.6064 29.4138 55.8643 29.4504 56.0211 29.5968C56.1814 29.7464 56.2653 29.9647 56.3319 30.1672C56.4242 30.4479 56.3811 30.5779 56.2261 30.8353C56.1374 30.9827 56.0471 31.1163 56.003 31.284M51.7971 31.9471C51.8047 31.8848 51.928 31.8326 51.9762 31.8518C52.0756 31.8914 52.0249 32.062 51.9819 32.1225C51.7597 32.435 51.3517 32.1139 51.5647 31.8023C51.7276 31.5639 52.3078 31.5352 52.4127 31.8474M52.8998 34.271C52.8998 34.2496 52.9198 34.2407 52.939 34.2337C53.0432 34.1955 53.1158 34.2227 53.1184 34.3437C53.1219 34.5026 52.8649 34.7005 52.7082 34.6016C52.5179 34.4816 52.6781 34.1092 52.8134 34.009C52.9307 33.9222 53.1769 33.8899 53.3115 33.9525C53.6155 34.0938 53.35 34.6677 53.1243 34.7932C52.9323 34.9 52.5752 34.9622 52.4326 34.7711M53.5257 29.449C53.4998 29.4287 53.5327 29.3696 53.5412 29.3483C53.6741 29.0126 53.8751 28.7349 54.2067 28.5748C54.4942 28.436 54.8177 28.4559 55.1287 28.4489C55.4172 28.4424 55.6731 28.38 55.931 28.2719M55.931 28.2719C55.9686 28.2561 56.0063 28.2394 56.0441 28.2217C56.0744 28.2075 56.3041 28.0315 56.1731 28.0996C56.0825 28.1466 56.0028 28.205 55.931 28.2719ZM55.931 28.2719C55.8436 28.3533 55.7679 28.4472 55.6985 28.5485C55.6448 28.6269 55.6049 28.7409 55.5875 28.8335C55.546 29.0536 55.5095 29.1708 55.3179 29.312M53.415 29.4063C53.4066 29.4158 53.4088 29.4575 53.407 29.4696C53.4002 29.5152 53.3705 29.6991 53.404 29.6935M53.8491 28.2685C53.8234 28.2806 53.863 28.2133 53.8676 28.1853C53.912 27.9112 53.9923 27.6711 54.1291 27.4315C54.2708 27.1833 54.4553 27.0754 54.7159 26.9771C54.7188 26.976 54.7364 26.9661 54.7595 26.9518M54.7595 26.9518C54.822 26.9131 54.9247 26.8421 54.8859 26.8258C54.838 26.8058 54.772 26.9072 54.7622 26.9415C54.7612 26.9449 54.7603 26.9484 54.7595 26.9518ZM54.7595 26.9518C54.7255 27.0899 54.8026 27.2142 54.8334 27.3454C54.8715 27.508 54.9478 27.6853 54.9453 27.8534C54.9423 28.0664 54.8173 28.1966 54.6811 28.3452M53.8359 28.2531C53.776 28.2531 53.7993 28.5801 53.8074 28.6302M50.6682 28.7782C50.6196 28.7848 50.6174 28.8704 50.5545 28.8741C50.3615 28.8855 50.0835 28.9084 49.9341 28.7573C49.7838 28.6054 49.6997 28.4165 49.6888 28.2004C49.6751 27.9311 49.6576 27.6579 49.6518 27.3887C49.6481 27.2162 49.5673 27.1181 49.486 26.9748C49.4275 26.8716 49.6793 27.1124 49.7794 27.1761C49.991 27.3108 50.1866 27.3791 50.3462 27.5832C50.4474 27.7125 50.5448 27.8525 50.619 27.9994C50.7269 28.2131 50.673 28.4911 50.6646 28.7207M50.6335 27.9628C50.5986 27.6915 50.748 27.3809 50.8663 27.1443C51.0295 26.8183 51.3229 26.6201 51.623 26.4299C51.663 26.4045 51.7716 26.3605 51.8627 26.3064M51.8627 26.3064C51.9522 26.2532 52.0248 26.1901 51.999 26.1251C51.9568 26.0191 51.8995 26.1711 51.8627 26.3064ZM51.8627 26.3064C51.842 26.3824 51.8278 26.4531 51.8264 26.4698C51.8131 26.6286 51.8279 26.7853 51.8196 26.944C51.8048 27.2292 51.7056 27.4488 51.5985 27.715M56.2346 30.9621C56.211 30.9572 56.2341 30.914 56.2393 30.9053C56.3364 30.7415 56.4622 30.5613 56.6502 30.5082C56.9965 30.4102 57.413 30.6895 57.7494 30.509M57.7494 30.509C57.7685 30.4988 57.7874 30.487 57.8059 30.4736C57.8363 30.4517 58.0017 30.2648 57.951 30.3038C57.882 30.3568 57.8122 30.4312 57.7494 30.509ZM57.7494 30.509C57.7017 30.568 57.6581 30.629 57.6217 30.684C57.4818 30.8955 57.3739 31.0819 57.1895 31.2632C56.9311 31.5172 56.718 31.5593 56.3568 31.5417M56.7351 31.5632C56.9742 31.3355 57.3022 31.6344 57.437 31.8388C57.5573 32.021 57.6017 32.396 57.8066 32.5083C57.9106 32.5653 58.013 32.5772 58.1217 32.6127C58.1911 32.6354 58.1261 32.6301 58.0938 32.63C57.9343 32.6295 57.7948 32.6505 57.6428 32.7008C57.5148 32.7431 57.4014 32.8236 57.2658 32.8431C56.7943 32.9111 56.509 32.5193 56.2023 32.2193M55.539 33.3963C55.4128 33.144 55.8271 32.9668 56.0143 32.9377C56.2677 32.8983 56.5579 32.9839 56.7816 33.0996C56.9946 33.2097 57.1025 33.4037 57.2791 33.5509C57.3128 33.579 57.3679 33.6289 57.4268 33.6697M57.4268 33.6697C57.4841 33.7093 57.5449 33.7402 57.593 33.7338C57.5993 33.733 57.4851 33.6859 57.4268 33.6697ZM57.4268 33.6697C57.4153 33.6665 57.406 33.6644 57.4002 33.6642C57.2391 33.6581 57.1094 33.7627 56.9644 33.8116C56.6855 33.9056 56.4168 33.8967 56.1233 33.8992M53.4376 35.5024C53.4376 35.2976 54.1387 35.655 54.2228 35.7524C54.4373 36.0006 54.5466 36.2915 54.6583 36.5959C54.6959 36.6985 54.7475 36.8118 54.7475 36.9229C54.7475 36.958 54.7182 36.8565 54.6911 36.8342C54.5836 36.7456 54.4194 36.788 54.2922 36.8039C54.1398 36.8231 53.975 36.8159 53.8386 36.7357C53.7248 36.6688 53.6008 36.6569 53.5141 36.5469C53.3274 36.3097 53.2526 36.0211 53.1946 35.7323M53.4688 35.5443C53.4483 35.5449 53.4585 35.5515 53.4617 35.5648C53.5309 35.8507 53.7294 36.0228 53.9345 36.2316M55.5414 33.4322C55.5662 33.3229 56.1226 33.4314 56.158 33.4346M56.3508 32.0325C56.3719 31.9931 56.4654 32.0021 56.4931 32.0254C56.6965 32.196 56.8222 32.3793 57.0836 32.4576M56.3173 31.222C56.303 31.0524 56.7268 31.014 56.8166 30.9969M54.7691 28.8991C54.4284 28.8467 54.2577 29.2651 54.2159 29.5301M54.5308 27.5629C54.5308 27.3307 54.483 28.0252 54.4494 28.255M51.2261 27.1103C51.2463 26.7871 50.9866 27.7201 50.9496 28.0419M50.0911 27.8898C50.1023 27.8898 50.1081 27.8953 50.117 27.9024C50.304 28.0533 50.3196 28.4783 50.3736 28.6836M49.4158 31.204C49.3878 31.1616 49.4168 31.1439 49.3562 31.1441C49.1511 31.1449 48.9845 30.9726 48.7646 30.9919C48.55 31.0108 48.3296 31.1652 48.2146 31.3444C48.1809 31.3969 48.1449 31.4731 48.0864 31.5034M48.0864 31.5034C48.0813 31.506 48.076 31.5083 48.0705 31.5102C48.0668 31.5115 48.0111 31.527 48.0382 31.517C48.0534 31.5114 48.0695 31.5069 48.0864 31.5034ZM48.0864 31.5034C48.2305 31.4733 48.4266 31.5156 48.5443 31.5772C48.7427 31.6811 48.8863 31.8887 49.077 32.0077C49.3218 32.1605 49.5669 32.0286 49.8085 31.932M48.6028 31.2459V31.2471M48.6147 31.2878C48.8681 31.5511 49.1482 31.5085 49.4098 31.3022M49.7442 25.471C49.7442 25.9852 49.3808 26.4061 49.0352 26.758C48.8434 26.9532 48.7224 27.1989 48.6793 27.4689C48.6512 27.6447 48.6581 27.8275 48.6759 28.0036C48.7119 28.3596 48.708 28.685 48.6136 29.0339M48.8001 29.5717C48.7944 29.5519 48.8044 29.53 48.8044 29.5095C48.8044 29.394 48.6764 29.225 48.589 29.1584C48.4636 29.0629 48.3048 29.0043 48.1464 28.9961C47.9594 28.9863 47.8204 29.0772 47.6448 29.1114C47.5951 29.1211 47.4954 29.0656 47.5372 29.0925C47.6673 29.1765 47.7925 29.3522 47.875 29.4812C47.9794 29.6444 48.0331 29.8342 48.1521 29.9853C48.26 30.1222 48.4276 30.3119 48.5824 30.3908M48.6524 29.8541C48.6569 29.8499 48.6117 29.8076 48.6006 29.7886C48.549 29.7011 48.4131 29.6511 48.335 29.5874C48.1914 29.4703 48.0963 29.3635 47.9099 29.3314M50.8059 35.9652C50.8017 35.9608 50.8004 35.9604 50.8002 35.9679C50.7958 36.1004 50.7465 36.2066 50.692 36.3318C50.57 36.6123 50.3956 36.8526 50.1882 37.0759C50.0223 37.2546 49.8561 37.4497 49.6324 37.5552M51.0184 36.0024C51.0082 35.9967 50.9098 36.3481 50.9086 36.3522C50.8061 36.6951 50.6879 37.0307 50.6026 37.3782C50.5473 37.6036 50.4892 37.8291 50.4242 38.0519C50.4115 38.0956 50.4 38.1411 50.3731 38.1777M51.3953 36.0663C51.3502 36.1897 51.2419 36.6129 51.2268 36.7394C51.1936 37.0174 51.1712 37.2967 51.1349 37.5744C51.0913 37.9084 51.0623 38.2134 51.0947 38.5504M51.6602 36.1349C51.6149 36.0752 51.7065 36.3321 51.706 36.407C51.7038 36.7601 51.6822 37.1208 51.7176 37.4727C51.7574 37.8679 51.8693 38.2168 52.0327 38.5761M52.0613 36.2502C51.999 36.2953 52.0715 36.4928 52.0774 36.5369C52.1152 36.8179 52.1444 37.0907 52.2228 37.365C52.3536 37.8223 52.5324 38.2637 52.7152 38.7019M50.6924 36.0643C50.6615 36.0657 50.6433 36.0806 50.6208 36.1011C50.4777 36.2315 50.3337 36.3623 50.1775 36.4771C49.8861 36.6914 49.5284 36.8252 49.212 36.9985M50.8135 36.1349C50.7817 36.1488 50.7662 36.185 50.744 36.2095C50.4497 36.5337 50.0771 36.7478 49.8507 37.1291M50.7896 36.3694C50.7452 36.3171 50.7196 36.488 50.6945 36.5518C50.5873 36.8245 50.4853 37.0947 50.3316 37.3455C50.1712 37.607 49.9838 37.8409 49.7887 38.0766M51.1648 36.0046C51.1648 36.5833 50.7434 37.815 50.6276 38.3807M51.4358 36.1349C51.4812 36.5126 51.4548 38.2343 51.4874 38.6133M51.8253 36.2095C52.0939 36.8572 52.0298 38.1396 52.2043 38.8144M51.9688 36.4246C51.9671 36.373 52.0271 36.5127 52.0293 36.5174C52.1953 36.872 52.5065 37.1706 52.7255 37.494C52.9646 37.847 53.1843 38.2145 53.4197 38.5704M50.4265 32.8757C50.4265 32.786 50.0117 32.9903 49.9635 33.0288C49.7972 33.1614 49.7154 33.3373 49.5757 33.4891C49.5637 33.5022 49.5321 33.529 49.4974 33.5516M49.4974 33.5516C49.4426 33.5872 49.3798 33.6124 49.3729 33.5572C49.3708 33.54 49.4226 33.5411 49.4974 33.5516ZM49.4974 33.5516C49.6688 33.5755 49.9609 33.6485 49.9978 33.6621C50.2023 33.7378 50.4866 33.8116 50.704 33.8146C51.0261 33.8189 51.2147 33.5303 51.3626 33.2904M51.2034 32.8223C51.2617 32.8288 51.1654 32.9343 51.1353 32.9847C50.9994 33.2118 50.8627 33.2782 50.6189 33.3466C50.425 33.4011 50.2244 33.4098 50.0309 33.4629" stroke="url(#paint1_linear_404_2861)" stroke-width="0.5" stroke-linecap="round"/>
<defs>
<filter id="filter0_ii_404_2861" x="-3" y="-4.00024" width="86" height="88" filterUnits="userSpaceOnUse" color-interpolation-filters="sRGB">
<feFlood flood-opacity="0" result="BackgroundImageFix"/>
<feBlend mode="normal" in="SourceGraphic" in2="BackgroundImageFix" result="shape"/>
<feColorMatrix in="SourceAlpha" type="matrix" values="0 0 0 0 0 0 0 0 0 0 0 0 0 0 0 0 0 0 127 0" result="hardAlpha"/>
<feOffset dx="-3" dy="6"/>
<feGaussianBlur stdDeviation="2"/>
<feComposite in2="hardAlpha" operator="arithmetic" k2="-1" k3="1"/>
<feColorMatrix type="matrix" values="0 0 0 0 1 0 0 0 0 0.992422 0 0 0 0 0.886338 0 0 0 0.44 0"/>
<feBlend mode="normal" in2="shape" result="effect1_innerShadow_404_2861"/>
<feColorMatrix in="SourceAlpha" type="matrix" values="0 0 0 0 0 0 0 0 0 0 0 0 0 0 0 0 0 0 127 0" result="hardAlpha"/>
<feOffset dx="3" dy="-6"/>
<feGaussianBlur stdDeviation="2"/>
<feComposite in2="hardAlpha" operator="arithmetic" k2="-1" k3="1"/>
<feColorMatrix type="matrix" values="0 0 0 0 0.656827 0 0 0 0 0.625334 0 0 0 0 0.586471 0 0 0 0.25 0"/>
<feBlend mode="normal" in2="effect1_innerShadow_404_2861" result="effect2_innerShadow_404_2861"/>
</filter>
<linearGradient id="paint0_linear_404_2861" x1="3.32092" y1="7.95894" x2="87.7125" y2="26.6437" gradientUnits="userSpaceOnUse">
<stop stop-color="#93642A"/>
<stop offset="0.22016" stop-color="#BB9B57"/>
<stop offset="0.36979" stop-color="#BB9B57"/>
<stop offset="0.526042" stop-color="#F1E695"/>
<stop offset="0.666668" stop-color="#B49250"/>
<stop offset="0.859379" stop-color="#B49250"/>
<stop offset="1" stop-color="#93642A"/>
</linearGradient>
<linearGradient id="paint1_linear_404_2861" x1="16.7913" y1="17.9745" x2="62.862" y2="26.7778" gradientUnits="userSpaceOnUse">
<stop stop-color="#93642A"/>
<stop offset="0.22016" stop-color="#BB9B57"/>
<stop offset="0.36979" stop-color="#BB9B57"/>
<stop offset="0.526042" stop-color="#F1E695"/>
<stop offset="0.666668" stop-color="#B49250"/>
<stop offset="0.859379" stop-color="#B49250"/>
<stop offset="1" stop-color="#93642A"/>
</linearGradient>
</defs>
</svg>
