<svg width="617" height="236" viewBox="0 0 617 236" fill="none" xmlns="http://www.w3.org/2000/svg">
<path d="M156.379 31.1074C156.819 24.6262 155.5 21.0984 151.776 19.2177M151.776 19.2177C147.15 16.8815 139.526 17.5847 135.336 24.1717C126.393 39.4964 121.527 48.3917 120.212 50.9238C119.818 51.8059 119.418 52.6866 119.011 53.566M151.776 19.2177C145.857 18.8134 136.98 34.4102 136.98 34.4102C136.98 34.4102 126.319 47.073 119.011 53.566M119.011 53.566C91.1437 113.857 34.4437 167.723 15 182.372M139.282 30.7772C143.263 32.5369 146.248 31.8967 149.474 29.456C152.492 27.0203 154.317 27.2148 156.379 30.7772M129.418 46.6303C129.418 46.6303 149.474 62.1531 147.173 63.4742M143.556 54.5568C152.603 64.0234 153.196 65.3677 152.762 66.4466M148.488 69.4191C143.685 73.918 141.322 74.3701 137.638 71.731M131.062 50.2633C134.748 53.7722 135.385 56.7826 133.363 64.465M125.473 49.6027C122.513 47.9514 123.171 83.2905 124.486 86.5932M132.377 58.1898C133.363 62.4833 131.72 74.7034 131.72 80.318M127.445 89.2354C136.109 96.068 144.213 100.134 151.776 104.758C158.936 109.136 157.548 108.777 157.38 108.726C157.371 108.723 157.365 108.721 157.365 108.721M153.42 98.483C143.556 94.1895 137.638 84.6116 130.076 80.318M127.445 94.1895C114.294 110.373 132.377 128.207 123.171 139.437M62.3454 190.959C99.1696 187.326 123.171 166.189 133.364 136.795M129.418 156.281C110.833 187.672 93.2515 198.886 62.3454 201.858M135.665 151.657C120.87 198.225 76.1545 223.656 70.8939 213.748M137.967 152.978C137.967 179.4 123.171 205.821 110.02 207.803M125.144 212.427C131.835 204.505 134.785 198.615 137.967 184.354M142.898 140.428C145.2 181.712 140.597 201.858 139.282 210.115M147.501 151.657C151.108 176.189 153.302 189.762 158.68 212.427M158.68 183.033C160.554 194.856 162.083 201.334 166.242 212.427M166.242 212.427C164.715 217.156 163.094 216.549 157.694 214.408C156.707 216.72 153.875 217.117 151.776 213.748C147.389 219.016 144.517 219.805 137.967 213.748C131.665 216.916 128.32 217.828 123.171 215.73M166.242 212.427C168.652 215.406 171.174 215.069 173.804 212.427M151.776 107.731C145.896 129.06 158.516 165.714 173.513 209.269L173.804 210.115M117.253 73.3823C85.6894 131.18 62.3454 175.436 35.7136 184.354M92.2651 127.217C81.4151 151.657 54.1257 193.271 39.9879 190.959M72.5378 181.139C65.8131 183.518 58.4016 185.551 50.1803 187.326M72.5378 181.139C86.669 173.359 96.7622 144.949 114.951 92.2078M72.5378 181.139C80.4322 178.345 87.3801 175.074 93.5803 171.181M120.87 143.4C113.413 155.216 104.699 164.199 93.5803 171.181M93.5803 171.181C103.444 154.96 111.664 143.4 117.253 108.721M17.3015 187.326C21.8508 189.679 24.4385 189.56 29.1379 186.005M30.453 188.978C34.3053 191.049 36.0792 190.851 38.3439 187.326M47.8788 190.959C42.2894 195.253 51.8242 193.601 51.8242 193.601M56.4272 193.601C45.906 197.234 51.8242 201.858 62.3454 199.546M56.4272 203.84C50.7214 209.756 80.4287 215.006 100.156 197.565M87.0045 213.748C89.306 217.051 102.774 219.074 105.745 210.115M110.02 210.115C108.096 214.423 114.951 218.372 120.87 213.748M149.304 41.4432C149.298 41.3938 149.302 41.3559 149.312 41.3275M149.312 41.3275C149.389 41.1163 149.824 41.4366 149.436 41.4834M149.312 41.3275C149.261 41.3329 149.221 41.3568 149.203 41.3846M149.312 41.3275C149.348 41.3238 149.39 41.3289 149.435 41.3478C149.485 41.3688 149.472 41.4269 149.436 41.4834M149.436 41.4834C149.407 41.487 149.372 41.4889 149.332 41.4889C149.284 41.4889 149.25 41.4812 149.227 41.4691M149.436 41.4834C149.396 41.548 149.326 41.6104 149.285 41.6127C149.147 41.6205 148.71 41.6057 148.956 41.4137C149.075 41.3207 149.162 41.3353 149.203 41.3846M149.227 41.4691C149.188 41.4481 149.183 41.4141 149.203 41.3846M149.227 41.4691C149.23 41.4383 149.222 41.4077 149.203 41.3846M149.227 41.4691C149.221 41.5205 149.182 41.5722 149.101 41.5887M149.296 41.4598C148.63 41.6654 147.619 41.3365 147.028 41.0483M148.22 42.3784L148.228 42.3701M148.352 42.3618C148.329 42.3965 148.23 42.5998 148.172 42.5557C148.162 42.5478 148.144 42.5326 148.125 42.5145M148.125 42.5145C148.112 42.5024 148.099 42.489 148.086 42.4756M148.125 42.5145C148.148 42.4791 148.31 42.4363 148.089 42.3881C148.077 42.3855 148.067 42.3844 148.06 42.3845M148.125 42.5145C148.12 42.5216 148.121 42.5284 148.132 42.535C148.181 42.5635 148.124 42.5629 148.086 42.4756M148.086 42.4756C148.045 42.4307 148.015 42.3851 148.06 42.3845M148.086 42.4756C148.079 42.4592 148.073 42.4397 148.068 42.4167C148.065 42.406 148.063 42.3952 148.06 42.3845M148.06 42.3845C147.955 41.9558 147.676 41.5773 147.396 41.2354M148.331 42.3451C148.181 42.2302 147.883 41.4941 147.802 41.3684M149.2 41.2437C149.499 41.2437 148.612 41.3767 148.313 41.3767C147.954 41.3767 147.655 41.2494 147.309 41.2021M157.217 109.574C157.179 109.564 157.005 110.007 156.926 110.131M153.352 67.8839C153.352 69.941 151.905 71.6243 150.529 73.0318C149.765 73.8128 149.284 74.7955 149.112 75.8756C149 76.5788 149.027 77.3102 149.098 78.0146M157.58 109.861C157.563 109.843 157.558 109.842 157.557 109.872M155.39 26.5636C155.368 26.5636 155.274 26.4704 155.24 26.454C154.929 26.3001 154.666 26.0595 154.353 25.9043C153.864 25.6621 153.122 25.6188 152.576 25.6188C151.955 25.6188 151.423 25.7215 150.846 25.9541C149.324 26.569 148.099 27.7477 146.748 28.65C145.813 29.2744 144.787 29.6564 143.804 30.184C142.943 30.6464 141.784 30.9876 140.861 30.5719M155.399 25.0771C155.394 24.9835 155.32 24.9264 155.266 24.8568C154.839 24.3051 154.29 24.1849 153.662 24.0353C152.421 23.7396 151.094 23.5091 149.854 23.9998C149.182 24.2661 148.503 24.7729 147.9 25.1738C147.014 25.762 146.416 26.6073 145.654 27.3342C145.02 27.9399 144.531 28.7067 143.883 29.2906C142.788 30.2772 141.348 30.5918 139.92 30.4034M154.548 22.8564C154.398 22.7249 154.394 22.6076 154.181 22.4932C153.401 22.0757 152.632 21.7864 151.753 21.6691C151.056 21.5762 150.455 21.6387 149.817 21.9085C149.231 22.1558 148.851 22.545 148.338 22.9085C147.3 23.6445 146.504 24.6069 145.677 25.5529C145.124 26.185 144.792 26.9514 144.215 27.5667C143.244 28.6012 142.084 29.3884 140.807 29.9821M140.071 34.0162C140.05 34.0079 140.032 33.9722 140.013 33.932M140.013 33.932C139.991 33.8848 139.968 33.8315 139.941 33.8093M140.013 33.932C139.988 34.1144 139.918 34.3024 139.854 34.3742C139.798 34.4374 139.734 34.4685 139.671 34.4748M140.013 33.932C140.02 33.8745 140.024 33.8176 140.021 33.7651M139.941 33.8093L139.939 33.8071C139.853 33.744 139.763 33.725 139.677 33.7375M139.941 33.8093C139.956 33.9944 139.829 34.3243 139.671 34.4748M139.941 33.8093C139.939 33.7806 139.933 33.7554 139.924 33.7349M139.677 33.7375C139.404 33.7773 139.178 34.1338 139.325 34.4055C139.43 34.5982 139.558 34.5821 139.671 34.4748M139.677 33.7375C139.815 33.6493 139.892 33.6646 139.924 33.7349M139.677 33.7375C139.632 33.7661 139.581 33.8055 139.523 33.8575C139.197 34.1484 139.425 34.4996 139.671 34.4748M139.924 33.7349C139.962 33.7399 139.994 33.7503 140.021 33.7651M139.924 33.7349C139.887 33.73 139.845 33.7302 139.798 33.7362M140.021 33.7651C140.012 33.5934 139.939 33.4683 139.746 33.5226C139.528 33.5842 139.304 33.7836 139.191 33.9791C138.897 34.4867 139.154 34.903 139.739 34.6487C140.039 34.5183 140.294 33.9148 140.021 33.7651ZM139.041 35.0421C139.014 34.9932 138.917 35.0945 138.887 35.1149C138.336 35.4931 137.939 36.2913 137.761 36.9265C137.724 37.0601 137.517 38.336 138.02 38.0399C139.105 37.4028 139.069 35.9961 139.214 34.9249M155.128 31.653C154.847 31.9986 154.866 32.5778 154.729 32.9943C154.613 33.3487 154.437 33.6928 154.235 34.0057C153.928 34.4786 153.271 34.6143 152.869 34.9849M152.502 33.7904C152.582 33.7815 152.362 33.6215 152.357 33.6148C152.149 33.3816 152.05 33.0065 151.87 32.7423C151.67 32.4502 151.371 32.4596 151.058 32.4695L151.026 32.4705C150.115 32.4993 149.247 32.5266 148.357 32.2673M153.051 34.9105C153.04 34.8625 153.025 35.0418 153.021 35.0649C152.933 35.5555 152.877 36.0352 152.823 36.5276C152.722 37.4283 152.722 38.3461 152.628 39.2491C152.578 39.7246 152.502 40.4163 152.09 40.7293C151.857 40.9058 151.595 40.9576 151.317 40.9073C151.016 40.8527 150.939 40.6973 150.747 40.4748C150.48 40.1648 150.085 40.033 149.896 39.6684M148.79 33.959C148.79 33.959 148.903 34.1069 148.915 34.1197C149.193 34.4161 149.368 34.7679 149.657 35.056C150.32 35.7159 151.188 35.6575 152.044 35.6993M148.861 34.0161C148.845 33.9563 148.853 33.9216 148.902 33.9823C149.111 34.2428 149.492 34.3837 149.78 34.5251C150.075 34.6699 150.345 34.7244 150.571 34.9728C150.766 35.186 150.859 35.4104 151.114 35.5707M139.803 40.9257C139.766 40.8267 139.77 40.8285 139.88 40.8285C140.423 40.8285 141.154 41.5411 141.512 41.9199C142.283 42.7349 142.73 43.8863 143.537 44.6754C143.921 45.051 144.38 45.7707 145.024 45.5031C145.686 45.2287 146.115 44.2638 146.503 43.7318M141.675 43.0174C141.528 42.9966 141.335 43.4532 141.296 43.5237C141.067 43.9354 140.778 44.335 140.515 44.7275C140.251 45.1226 139.892 45.4216 139.748 45.8902C139.541 46.5614 139.593 47.1588 139.834 47.796C140.092 48.4778 140.896 49.1403 141.365 49.6755M141.892 50.5244C141.97 50.4995 142.084 50.6691 142.133 50.7094C142.483 50.9978 142.875 51.2317 143.24 51.502C144.329 52.3096 144.913 52.9616 144.678 54.3329M155.125 83.1079C155.074 83.0372 154.938 82.9076 155.018 82.8117C155.248 82.5379 156.311 81.7667 156.633 82.3228C156.96 82.8856 156.474 83.3553 156.06 83.6656C155.639 83.9811 154.625 84.4791 154.099 84.2341C153.165 83.7993 153.606 82.8065 154.075 82.1852C154.726 81.3229 155.99 80.8433 157.038 81.1377C157.689 81.3207 158.242 81.9027 158.158 82.6185C158.074 83.331 157.405 83.9303 156.9 84.3826L156.894 84.3884C155.768 85.397 154.289 85.6473 152.843 85.2583C152.156 85.0733 151.399 84.512 151.546 83.7082C151.77 82.4825 153.242 81.5552 154.268 81.0655C155.813 80.3281 157.916 79.9314 159.038 81.6055C159.421 82.1777 159.416 82.939 159.084 83.5143C158.509 84.5085 157.547 84.8685 156.556 85.3929M165.597 81.4587C166.158 81.0626 166.858 81.8767 166.083 82.2354C165.538 82.4875 163.945 82.3374 164.184 81.4877C164.439 80.5806 165.606 80.1624 166.448 80.2094C167.058 80.2435 167.931 80.4773 168.131 81.1534C168.332 81.8357 167.968 82.6842 167.397 83.068C166.669 83.5565 165.475 83.6532 164.63 83.5366C163.772 83.4182 162.731 82.8803 162.387 82.0352C161.993 81.0645 162.794 80.11 163.615 79.6989C164.67 79.1711 165.906 79.0361 167.045 79.3163C167.909 79.529 169.006 79.9679 169.344 80.8828C169.759 82.0052 169.464 82.9064 168.664 83.7586C167.985 84.4815 166.566 84.743 165.613 84.7819C164.425 84.8303 163.419 84.6284 162.318 84.1647C161.126 83.6629 160.514 82.8229 160.63 81.52C160.775 79.8935 162.112 79.0846 163.54 78.5485C165.046 77.9829 166.377 78.071 167.768 78.7962M171.326 86.8621C171.399 86.4607 172.119 86.4918 172.396 86.4812C172.864 86.4633 172.783 86.9644 172.534 87.2166C171.814 87.9448 169.258 87.0131 170.042 85.8826C170.879 84.6775 173.227 84.7426 174.04 85.9626C174.983 87.3775 173.247 89.0426 171.842 89.1429C171.212 89.1878 170.569 89.112 169.938 89.1074L169.927 89.1073C169.293 89.1027 168.611 89.0977 168.087 88.6872C167.307 88.077 166.972 86.7507 167.499 85.8939C168.237 84.6936 169.709 84.3244 170.979 83.9567C172.013 83.6574 173.162 83.6943 174.122 84.2073C176.601 85.5329 175.81 89.0063 173.722 90.2542C173.086 90.6346 172.184 90.5938 171.472 90.6449C170.36 90.7246 169.265 90.7015 168.18 90.4033C167.082 90.1014 165.805 89.5801 165.337 88.4467C164.781 87.104 165.672 86.0408 166.485 85.0851M157.829 91.521C157.829 91.0405 160.326 92.0424 159.438 92.3658C158.742 92.6189 157.404 92.7972 156.718 92.3763C155.95 91.9042 156.908 90.7801 157.433 90.58C158.515 90.1674 159.988 90.3693 160.954 90.9998C161.396 91.2885 161.744 91.8018 161.79 92.339C161.846 93.0085 161.135 93.5814 160.655 93.9372C159.506 94.7883 157.863 94.5453 156.593 94.1824C155.382 93.8359 154.272 92.6035 154.875 91.2766C155.614 89.6504 157.68 89.4338 159.252 89.4988C160.653 89.5566 162.273 89.98 163.275 91.0398C163.979 91.7852 164.088 93.0981 163.542 93.9489C162.863 95.0062 161.588 95.3526 160.423 95.5456C159.085 95.7674 157.765 95.907 156.414 95.6885C155.339 95.5149 153.731 94.7274 153.491 93.5324C153.338 92.766 153.299 92.1617 153.833 91.5538C154.479 90.818 155.271 90.0237 156.132 89.5481C157.192 88.9622 158.745 88.6145 159.941 88.6094C161.849 88.6013 162.988 89.7459 163.914 91.2725M168.262 95.8667C168.179 95.7465 168.266 95.7069 168.389 95.6701C168.651 95.5918 168.929 95.7746 169.075 95.9856C169.45 96.5286 167.381 96.6959 167.021 95.9801C166.057 94.064 171.764 93.8042 170.477 96.3278C169.731 97.7913 168.491 97.9322 166.98 97.5664C166.015 97.3324 164.893 96.1073 165.316 95.0428C165.866 93.6563 167.891 93.3684 169.179 93.4185C170.304 93.4623 171.747 94.1116 172.201 95.2257C173.546 98.526 169.035 99.679 166.689 99.6223C165.716 99.5988 163.983 99.1851 163.472 98.2061C163.218 97.719 163.086 96.7633 163.141 96.2274C163.201 95.6445 163.519 95.0179 163.854 94.5495C165.375 92.4254 168.505 91.734 170.871 92.6018C171.997 93.0147 173.034 93.6318 173.603 94.7397C173.925 95.3667 173.911 95.9788 173.908 96.6678C173.903 98.1772 172.213 98.5877 171.067 99.2183M159.141 101.96C159.128 101.328 160.936 101.669 160.082 102.321C159.229 102.973 157.025 102.495 158.073 101.166C158.941 100.064 160.789 100.152 161.294 101.57C161.831 103.081 160.187 104.24 158.843 104.333C157.511 104.425 155.838 103.654 155.748 102.147C155.682 101.047 156.46 100.051 157.255 99.366C158.768 98.064 161.464 98.806 162.521 100.386C163.444 101.764 163.461 103.923 162.159 105.093C161.548 105.641 160.733 105.835 159.947 105.982C159.125 106.136 158.569 105.856 157.885 105.402M166.358 103.929C166.279 103.866 167.16 103.418 167.312 103.808C167.467 104.204 166.992 104.713 166.646 104.792C166.357 104.858 165.34 104.758 165.267 104.365C164.995 102.904 167.324 101.593 168.309 102.82C168.705 103.314 169.071 104.046 168.959 104.696C168.809 105.565 167.789 106.095 167.015 106.256C166.115 106.444 165.339 106.363 164.61 105.783C163.62 104.993 163.519 103.733 164.27 102.746C165.158 101.579 166.092 100.739 167.592 100.633C168.683 100.556 169.869 100.819 170.692 101.586C171.538 102.375 171.946 103.738 171.767 104.872C171.597 105.943 170.588 106.577 169.701 107.057C167.888 108.036 164.946 108.405 163.801 106.253M177.372 97.6517C177.382 97.439 177.88 97.4738 177.97 97.5176C178.812 97.9302 177.768 99.0395 177.11 98.9426C176.424 98.8413 176.596 97.6339 176.829 97.2329C177.192 96.6064 178.423 96.0482 179.095 96.5927C179.853 97.2077 179.663 98.4079 179.297 99.1635C178.788 100.218 177.336 100.902 176.228 100.609C172.835 99.7137 176.738 93.9611 179.467 95.1784C179.996 95.4144 180.41 95.9327 180.615 96.4628C180.938 97.2975 180.684 97.9352 180.342 98.7133C180.054 99.3676 179.842 100.037 179.331 100.562C178.774 101.135 177.994 101.515 177.263 101.809C176.121 102.269 174.385 102.363 173.797 101.016C173.163 99.5622 174.395 97.8736 175.122 96.686C176.004 95.2434 177.508 93.8223 179.267 93.715C180.558 93.6362 181.71 94.2154 182.154 95.4337C182.452 96.2496 182.422 96.8888 182.076 97.6927C181.695 98.577 181.31 99.5817 180.75 100.368C180.133 101.235 179.343 101.992 178.402 102.497C177.304 103.086 175.9 103.57 174.64 103.308C173.543 103.079 173.002 102.232 172.45 101.367L172.431 101.338M177.447 89.9695C177.811 89.5832 178.591 90.1796 178.101 90.6436C177.716 91.0082 177.331 90.7028 177.067 90.3954C176.701 89.9686 177.22 89.3293 177.615 89.0983C178.993 88.2926 180.349 89.4713 179.478 90.8858C179.014 91.6406 178.485 91.9792 177.593 92.0421C176.803 92.0979 176.108 91.9131 175.734 91.1662C175.286 90.2717 175.895 89.3333 176.39 88.5824C177.028 87.6162 178.086 86.8892 179.271 86.887C181.319 86.8831 181.828 89.1252 181.269 90.7195C180.7 92.3444 178.995 93.155 177.428 93.5043C176.405 93.7323 175.625 93.6378 174.632 93.3604C174.213 93.2435 173.616 93.1657 173.48 92.6775C173.237 91.8086 173.451 90.9495 173.773 90.1465M169.716 81.7479C169.661 81.6521 169.64 81.55 169.639 81.4401C169.628 80.5142 169.773 79.3383 170.327 78.5783C171.13 77.4773 172.241 76.9774 173.551 76.678C174.328 76.5003 175.264 76.2728 175.845 75.6665M175.845 75.6665C175.936 75.5719 176.018 75.4681 176.089 75.3538C176.145 75.2648 176.232 74.9508 176.088 75.1953C175.998 75.3468 175.916 75.5043 175.845 75.6665ZM175.845 75.6665C175.73 75.9282 175.643 76.2021 175.596 76.4822C175.449 77.3563 175.516 78.5058 175.159 79.3143C174.579 80.63 173.027 81.2974 171.966 82.1623M173.077 81.8308C173.07 81.6655 173.035 81.5427 173.186 81.4377C173.915 80.9323 174.821 80.3642 175.741 80.4899C177.111 80.6771 178.622 82.1544 180.041 82.1348M180.041 82.1348C180.204 82.1325 180.366 82.1105 180.527 82.0644C180.941 81.9456 180.776 81.1685 180.248 81.8565C180.177 81.9486 180.109 82.0416 180.041 82.1348ZM180.041 82.1348C179.67 82.6458 179.329 83.1619 178.826 83.5721C177.98 84.2628 176.935 84.5599 175.878 84.7361M173.208 78.3279C172.941 78.2887 172.656 78.5491 172.486 78.7132C171.745 79.4269 171.429 80.2869 171.223 81.268M176.426 82.0227C175.853 82.9793 174.192 82.8385 173.216 83.026M172.882 104.438C172.855 104.34 173.119 104.162 173.019 104.168C172.281 104.215 172.313 104.73 172.063 105.352C171.552 106.624 171.178 107.453 171.862 108.714C172.446 109.791 172.881 110.893 172.847 112.132C172.838 112.462 172.888 113.577 172.557 113.928M172.557 113.928C172.51 113.978 172.455 114.012 172.391 114.026C172.147 114.081 172.275 114.029 172.557 113.928ZM172.557 113.928C173.004 113.767 173.838 113.485 174.196 113.313C175.351 112.755 176.31 112.507 176.773 111.198C177.08 110.331 177.275 109.468 177.118 108.548C176.957 107.613 176.343 106.83 176.08 105.924M174.459 106.898C174.437 106.893 174.469 106.932 174.478 106.948C174.53 107.04 174.592 107.168 174.596 107.274C174.635 108.39 174.177 109.658 173.966 110.731M177.326 103.507C178.141 102.837 179.32 102.425 180.341 103.015C181.639 103.766 182.526 105.066 183.997 105.547C184.013 105.552 184.03 105.556 184.047 105.559M184.047 105.559C184.3 105.602 184.674 105.407 184.403 105.333C184.314 105.308 184.186 105.407 184.047 105.559ZM184.047 105.559C183.748 105.888 183.402 106.468 183.303 106.621C182.879 107.272 181.617 107.859 180.859 107.979C179.893 108.132 178.624 108.139 177.689 107.839C175.847 107.249 174.9 106.051 174.183 104.285M175.446 104.53C175.612 104.502 175.825 104.643 175.955 104.729C177.251 105.588 178.705 105.996 180.231 106.076M180.41 91.7315C180.549 91.0198 181.991 90.4447 182.503 90.3732C183.377 90.2513 184.176 90.7265 184.969 91.0102C185.098 91.0564 185.266 91.1358 185.425 91.1622M185.425 91.1622C185.556 91.1842 185.682 91.1696 185.775 91.0691C185.915 90.918 185.675 91.0144 185.425 91.1622ZM185.425 91.1622C185.244 91.2686 185.058 91.4016 185.003 91.4883C184.658 92.0338 184.35 92.5843 183.974 93.1121C183.243 94.1412 182.262 94.2873 181.06 94.4644M183.082 91.726C182.254 92.613 181.268 92.7692 180.106 93.0435M153.626 87.1694C153.626 86.0887 151.709 85.7462 150.911 85.7409C149.608 85.7324 148.17 86.1878 147.043 86.8288C146.715 87.0156 146.37 87.4291 146.016 87.7585M146.016 87.7585C145.776 87.982 145.531 88.1669 145.284 88.2161C145.069 88.2591 144.934 87.9706 145.141 87.8898C145.422 87.7799 145.72 87.7397 146.016 87.7585ZM146.016 87.7585C146.526 87.791 147.03 87.9986 147.43 88.3253C148.288 89.0258 148.955 89.5413 150.083 89.7958C150.595 89.9112 151.106 90.0802 151.596 89.8061C152.327 89.3975 152.913 88.6906 153.523 88.1275M153.447 88.7537C153.444 88.7279 153.252 88.7411 153.234 88.7403C152.298 88.7008 151.287 89.1046 150.607 89.7375C150.003 90.3 149.825 90.9847 149.58 91.7403C149.502 91.9808 149.403 92.5064 149.241 92.9461M149.241 92.9461C149.12 93.2745 148.963 93.555 148.753 93.6333C148.597 93.6913 148.132 93.7276 148.255 93.6157C148.55 93.3483 148.883 93.1224 149.241 92.9461ZM149.241 92.9461C149.527 92.8053 149.828 92.6961 150.137 92.6225C150.829 92.4577 151.503 92.8436 152.19 92.9144C153.828 93.0833 154.319 91.9401 154.884 90.5393M155.778 87.5233C155.646 87.8108 155.503 88.0989 155.339 88.3689C154.364 89.9774 152.802 90.4383 151.258 91.3232M152.293 86.8319C152.058 86.9446 151.942 87.1695 151.676 87.2538C150.565 87.6054 149.471 87.1475 148.44 86.7666M157.577 107.731C157.577 107.616 157.592 107.978 157.667 108.064C157.928 108.361 158.52 108.313 158.858 108.35C160.19 108.495 162.208 108.662 162.969 107.198C163.036 107.069 163.067 106.964 163.069 106.88M163.069 106.88C163.081 106.316 161.786 106.669 161.24 106.766M163.069 106.88C163.064 106.881 163.058 106.883 163.052 106.885C162.508 107.045 161.856 106.822 161.312 106.77C161.289 106.768 161.265 106.767 161.24 106.766M163.069 106.88C163.893 106.62 164.07 105.268 163.306 104.862M161.24 106.766C161.17 106.778 161.113 106.786 161.072 106.788C160.632 106.804 160.984 106.756 161.24 106.766ZM158.688 108.466C158.614 108.196 158.364 108.975 158.352 108.996C157.064 111.236 155.61 113.362 153.921 115.316C153.293 116.041 152.625 116.716 152.076 117.503M157.756 108.722C157.656 108.722 157.639 108.76 157.579 108.854C156.697 110.221 156.018 111.716 155.133 113.085C154.611 113.894 153.975 114.622 153.399 115.391M159.311 108.521C159.205 108.038 159.092 109.485 158.983 109.967C158.398 112.54 157.593 114.962 156.647 117.419C156.243 118.467 155.955 119.435 155.778 120.541M158.395 109.114C158.352 109.016 158.509 109.308 158.507 109.415C158.494 109.999 158.27 110.656 158.146 111.21C157.81 112.705 157.507 114.215 157.105 115.695C156.542 117.764 155.662 119.743 155.279 121.858M160.531 109.011C160.49 109.022 160.484 109.093 160.479 109.127C160.37 109.941 160.17 110.743 160.014 111.549C159.364 114.916 158.726 118.469 159.019 121.913M160.721 109.833C160.706 109.817 160.683 109.781 160.677 109.823C160.6 110.417 160.566 110.993 160.457 111.591C159.91 114.596 158.968 117.696 159.153 120.779C159.226 122.006 159.453 123.206 159.675 124.412M161.631 109.212C161.602 109.843 161.601 110.434 161.637 111.084C161.748 113.115 161.849 115.093 162.398 117.063C162.853 118.698 163.766 120.121 164.673 121.536L164.698 121.575M161.474 109.375C161.447 109.297 161.231 110.873 161.228 110.898C160.955 113.053 160.473 115.251 161.008 117.399C161.398 118.963 162.11 120.337 162.926 121.712M162.888 109.065C163.257 109.77 163.744 110.446 164.162 111.116C166.346 114.616 168.287 118.253 170.514 121.728M163.36 109.185C162.867 109.276 163.632 111.911 163.633 111.915C164.432 115.798 165.71 119.354 167.316 122.975M163.761 108.875C163.838 108.955 163.888 109.047 163.931 109.149C164.483 110.443 164.515 112.041 164.813 113.408C165.443 116.307 166.874 118.937 168.237 121.543M161.853 84.0827C161.455 83.7624 160.732 85.4907 160.73 85.499C160.535 86.4412 161.267 86.9144 161.913 87.4459C163.044 88.375 164.428 86.8806 165.257 86.2004M163.669 84.3984C163.543 84.3863 163.463 84.33 163.34 84.4166C162.912 84.7166 162.563 85.4704 162.453 85.963C162.293 86.6815 163.323 86.5399 163.712 86.5488M164.097 84.8557C163.997 84.8557 163.985 85.0135 163.967 85.0892C163.773 85.891 165.351 85.179 165.69 84.9918M153.561 81.0082C153.558 81.0077 153.586 80.8617 153.586 80.8443C153.577 80.1788 152.731 79.7568 152.208 79.5284C151.366 79.1602 150.461 79.0321 149.547 79.0903C148.887 79.1322 148.278 79.385 147.613 79.3684C147.473 79.3649 147.209 79.3502 146.999 79.324M146.999 79.324C146.766 79.2948 146.599 79.2514 146.743 79.1933C146.819 79.1628 146.912 79.2304 146.999 79.324ZM146.999 79.324C147.106 79.4385 147.204 79.5919 147.252 79.6528C147.711 80.235 148.068 80.9336 148.431 81.5812C148.645 81.9613 148.829 82.3866 149.101 82.7292C149.692 83.4757 150.391 83.4231 151.268 83.4287M148.069 80.09C148.392 79.9865 148.747 80.0847 149.061 80.1589C150.209 80.4303 150.967 80.9251 151.564 81.9448M158.351 77.7062C158.8 77.7062 159.441 77.7157 159.402 78.3767C159.349 79.2968 157.898 79.0341 157.439 78.702C156.43 77.9721 158.201 76.7478 158.879 76.6961C159.834 76.6233 160.842 76.9593 161 77.998C161.438 80.8819 155.501 80.9617 155.257 78.1147C155.121 76.5316 157.817 75.8003 158.969 75.7154C160.675 75.5897 163 76.7077 161.923 78.6759M161.572 75.9652C161.356 75.9573 161.361 75.6567 161.407 75.5028C161.761 74.3321 162.408 73.9043 163.392 73.3422C163.942 73.0281 164.566 72.7142 165.02 72.2605C165.182 72.0986 165.232 73.2999 165.225 73.4928C165.19 74.3663 165.357 75.2236 165.162 76.0909C164.881 77.3352 163.433 77.7986 162.395 78.2204M163.887 74.1764C163.887 74.1293 163.986 74.0526 163.991 74.0952C164.021 74.3092 163.968 74.5296 163.925 74.7372C163.699 75.8276 163.367 76.4247 162.381 76.9092M165.536 76.259C165.249 75.8363 166.315 75.2776 166.566 75.146C167.103 74.8646 167.803 75.1597 168.334 75.303C168.49 75.3451 169.341 75.685 169.733 75.6889M169.733 75.6889C169.817 75.6898 169.88 75.6751 169.91 75.6385C170.133 75.3672 169.869 75.3524 169.733 75.6889ZM169.733 75.6889C169.727 75.7036 169.721 75.719 169.716 75.735C169.563 76.1872 169.51 76.7301 169.214 77.1181C168.68 77.8179 167.885 78.0602 167.072 78.2461M167.774 76.3104C167.742 76.2638 167.582 76.3609 167.547 76.3769C166.649 76.7837 165.649 76.927 164.695 77.1295M152.522 78.9403C152.04 78.8676 152.138 77.2887 152.148 77.094C152.195 76.1898 152.722 75.5599 153.247 74.8734C153.673 74.3162 154.063 73.7271 154.458 73.1471C154.511 73.0697 154.547 72.883 154.573 73.0484C154.621 73.3486 154.596 73.634 154.747 73.9115C155.128 74.6139 155.434 75.2963 155.692 76.057C155.816 76.4202 155.988 76.8218 156.001 77.2099C156.026 77.9357 155.574 78.6119 155.225 79.2121M154.537 74.9551C154.523 74.7928 154.521 75.1353 154.52 75.1676C154.483 76.5649 154.248 78.1501 153.725 79.4472M162.687 109.488C162.688 109.467 162.715 109.371 162.683 109.439C162.497 109.827 162.627 110.364 162.662 110.759C162.811 112.465 163.256 114.092 163.677 115.746C164.166 117.662 164.604 119.612 165.279 121.472M159.576 109.691C159.319 109.537 154.865 116.986 154.237 118.086M160.654 110.108C160.303 109.962 159.343 113.431 159.289 113.59C158.632 115.515 157.867 117.427 157.345 119.394C157.01 120.658 156.923 121.776 156.991 123.066M158.755 109.942C158.747 109.893 158.75 109.866 158.717 109.917C158.496 110.258 158.324 110.641 158.132 110.997C156.743 113.565 155.37 116.111 154.11 118.744C153.681 119.64 153.237 120.526 152.723 121.376C152.603 121.575 152.442 121.836 152.295 122.035C152.176 122.195 152.248 122.107 152.22 122.07M165.541 108.218C165.502 107.583 168.306 108.52 168.642 108.751C169.42 109.287 169.961 110.16 170.292 111.036C170.443 111.436 170.63 111.83 170.941 112.087M170.941 112.087C171.08 112.201 171.242 112.288 171.438 112.337C171.639 112.388 171.261 112.186 170.941 112.087ZM170.941 112.087C170.832 112.053 170.73 112.031 170.659 112.035C169.988 112.07 169.529 112.981 168.818 113.002C166.38 113.075 163.851 111.091 164.706 108.434M164.663 107.959C164.423 107.585 164.829 108.312 164.884 108.397C165.517 109.375 166.625 109.914 167.363 110.797C167.958 111.509 168.729 111.893 169.599 111.443" stroke="url(#paint0_linear_454_3330)" stroke-width="1.5" stroke-linecap="round"/>
<path d="M322.217 151.6C322.75 151.6 323.017 152 323.017 152.8C323.017 153.6 322.75 154 322.217 154H298.817C295.35 154 289.017 148.267 279.817 136.8C270.75 125.333 259.817 109.267 247.017 88.6C242.884 89.8 238.484 90.4 233.817 90.4C231.817 90.4 229.484 90.2667 226.817 90L226.417 137.8C226.55 141.933 227.017 144.933 227.817 146.8C228.617 148.667 230.084 149.933 232.217 150.6C234.484 151.267 238.084 151.6 243.017 151.6C243.55 151.6 243.817 152 243.817 152.8C243.817 153.6 243.617 154 243.217 154C239.084 154 235.817 153.933 233.417 153.8L219.817 153.6L206.017 153.8C203.617 153.933 200.35 154 196.217 154C195.684 154 195.417 153.6 195.417 152.8C195.417 152 195.684 151.6 196.217 151.6C201.284 151.6 205.017 151.267 207.417 150.6C209.817 149.8 211.484 148.467 212.417 146.6C213.35 144.733 213.884 141.8 214.017 137.8V45.2C213.884 41.2 213.417 38.2667 212.617 36.4C211.817 34.5333 210.217 33.2666 207.817 32.6C205.55 31.8 201.884 31.4 196.817 31.4C196.284 31.4 196.017 31 196.017 30.2C196.017 29.4 196.284 29 196.817 29L206.617 29.2C212.217 29.4667 216.684 29.6 220.017 29.6C222.817 29.6 225.284 29.5333 227.417 29.4C229.684 29.2667 231.484 29.1333 232.817 29C236.684 28.6 240.084 28.4 243.017 28.4C254.084 28.4 262.55 30.6 268.417 35C274.284 39.4 277.217 45.5333 277.217 53.4C277.217 59.6667 275.35 65.6 271.617 71.2C268.017 76.6667 263.084 81.1333 256.817 84.6C268.15 101.667 277.55 115 285.017 124.6C292.617 134.2 299.35 141.133 305.217 145.4C311.084 149.533 316.75 151.6 322.217 151.6ZM226.417 85.2C230.017 85.6 233.617 85.8 237.217 85.8C246.55 85.8 253.284 83.8 257.417 79.8C261.55 75.8 263.617 69.2667 263.617 60.2C263.617 50.0667 261.417 42.7333 257.017 38.2C252.617 33.6666 246.684 31.4 239.217 31.4C235.484 31.4 232.817 31.6667 231.217 32.2C229.617 32.6 228.417 33.8 227.617 35.8C226.95 37.6667 226.55 40.9333 226.417 45.6V85.2ZM351.429 155.8C347.696 155.8 344.829 154.467 342.829 151.8C340.963 149.133 340.096 145.2 340.229 140L340.829 94.6C340.963 86.7333 339.029 82.8 335.029 82.8C331.829 82.8 327.363 86 321.629 92.4C321.363 92.6667 321.163 92.8 321.029 92.8C320.496 92.8 320.029 92.6 319.629 92.2C319.229 91.6667 319.163 91.2 319.429 90.8C323.429 85.4667 327.163 81.5333 330.629 79C334.096 76.3333 337.696 75 341.429 75C345.163 75 347.896 76.2667 349.629 78.8C351.363 81.3333 352.229 85.2 352.229 90.4L351.629 136.2C351.629 143.933 353.496 147.8 357.229 147.8C360.563 147.8 364.829 144.733 370.029 138.6C370.163 138.467 370.363 138.4 370.629 138.4C371.163 138.4 371.629 138.667 372.029 139.2C372.563 139.6 372.696 139.933 372.429 140.2C368.296 145.533 364.629 149.467 361.429 152C358.229 154.533 354.896 155.8 351.429 155.8ZM344.429 51.6C341.629 51.6 339.429 50.8667 337.829 49.4C336.229 47.8 335.429 45.6 335.429 42.8C335.429 40.2666 336.229 38.2666 337.829 36.8C339.429 35.3333 341.629 34.6 344.429 34.6C346.963 34.6 348.963 35.3333 350.429 36.8C352.029 38.2666 352.829 40.2666 352.829 42.8C352.829 45.6 352.096 47.8 350.629 49.4C349.163 50.8667 347.096 51.6 344.429 51.6ZM432.183 139.8C432.583 139.8 432.983 140.067 433.383 140.6C433.783 141 433.849 141.333 433.583 141.6C427.983 146.8 422.916 150.6 418.383 153C413.983 155.267 409.516 156.4 404.983 156.4C399.916 156.4 395.716 155.067 392.383 152.4C389.049 149.733 387.449 145.4 387.583 139.4L387.783 92.8C387.649 89.3333 387.383 86.8667 386.983 85.4C386.583 83.9333 385.716 83 384.383 82.6C383.183 82.0667 381.049 81.8 377.983 81.8C377.449 81.8 377.116 81.4 376.983 80.6C376.983 79.8 377.249 79.4 377.783 79.4C382.849 79.4 386.916 78 389.983 75.2C393.183 72.2667 395.049 68.5333 395.583 64C395.583 63.6 396.116 63.4 397.183 63.4C398.516 63.4 399.183 63.6 399.183 64V78.8C404.116 78.6667 413.383 78.2 426.983 77.4C427.516 77.4 427.916 77.6 428.183 78C428.583 78.2667 428.783 78.6667 428.783 79.2C428.649 80.5333 427.916 82 426.583 83.6C425.383 85.2 423.983 85.8667 422.383 85.6C413.183 84.4 405.449 83.7333 399.183 83.6L398.983 133.2C398.983 138.667 399.916 142.667 401.783 145.2C403.783 147.6 407.249 148.8 412.183 148.8C415.916 148.8 419.316 148.067 422.383 146.6C425.449 145 428.649 142.733 431.983 139.8H432.183ZM506.278 135C506.411 134.867 506.678 134.8 507.078 134.8C507.478 134.8 507.878 134.933 508.278 135.2C508.811 135.333 509.011 135.533 508.878 135.8C507.945 141.667 507.011 145.933 506.078 148.6C505.145 151.133 504.011 152.867 502.678 153.8C501.345 154.6 499.278 155 496.478 155C491.678 155 484.345 154.133 474.478 152.4C473.411 152.267 470.345 151.8 465.278 151C460.211 150.2 455.745 149.733 451.878 149.6C449.611 149.6 447.678 150 446.078 150.8C444.478 151.6 442.745 153.133 440.878 155.4L440.678 155.6C440.278 155.6 439.811 155.333 439.278 154.8C438.745 154.267 438.611 153.867 438.878 153.6L488.678 89.6C487.478 90.2667 485.478 90.6 482.678 90.6C479.611 90.6 475.878 90.2 471.478 89.4C467.078 88.6 464.545 88.1333 463.878 88C457.078 86.5333 452.345 85.8 449.678 85.8C447.145 85.8 445.211 86.4667 443.878 87.8C442.678 89.1333 441.745 91.4667 441.078 94.8C441.078 95.3333 440.678 95.6 439.878 95.6C438.945 95.6 438.545 95.2 438.678 94.4C439.745 88.1333 440.745 83.7333 441.678 81.2C442.611 78.6667 443.878 77 445.478 76.2C447.078 75.4 449.678 75.0667 453.278 75.2C455.678 75.3333 458.678 75.7333 462.278 76.4C466.011 76.9333 468.611 77.3333 470.078 77.6C478.345 79.2 485.211 80.2 490.678 80.6C493.078 80.6 495.078 80.2667 496.678 79.6C498.278 78.8 499.945 77.2667 501.678 75L502.078 74.8C502.478 74.8 502.878 75.0667 503.278 75.6C503.811 76 504.011 76.3333 503.878 76.6L454.278 140.4C455.478 139.867 457.411 139.6 460.078 139.6C462.745 139.6 466.078 139.867 470.078 140.4C474.078 140.933 478.011 141.533 481.878 142.2C490.678 143.533 496.078 144.2 498.078 144.2C500.478 144.2 502.278 143.533 503.478 142.2C504.678 140.867 505.611 138.467 506.278 135ZM582.115 75.2C584.382 75.2 585.849 75.3333 586.515 75.6C587.315 75.7333 587.782 76 587.915 76.4L587.515 91.6L587.115 168C586.849 180.533 583.449 190.667 576.915 198.4C570.515 206.267 561.715 210.2 550.515 210.2C543.449 210.2 537.515 208.733 532.715 205.8C528.049 203 525.715 199.533 525.715 195.4C525.715 193 526.249 191.267 527.315 190.2C528.382 189.133 529.715 188.6 531.315 188.6C533.049 188.6 534.449 189.133 535.515 190.2C536.582 191.267 537.849 192.867 539.315 195C541.715 198.467 544.182 201.133 546.715 203C549.249 205 552.849 206 557.515 206C563.249 206 567.782 203.6 571.115 198.8C574.449 194 576.049 185.333 575.915 172.8V112.8C573.382 126.533 569.182 137.267 563.315 145C557.582 152.733 550.582 156.6 542.315 156.6C530.049 156.6 524.315 147.8 525.115 130.2L526.115 94.6C526.249 86.8667 524.315 83 520.315 83C517.249 83 513.049 86.1333 507.715 92.4C507.449 92.6667 507.182 92.8 506.915 92.8C506.515 92.8 506.182 92.6 505.915 92.2C505.515 91.6667 505.382 91.2 505.515 90.8C509.515 85.4667 513.182 81.5333 516.515 79C519.982 76.3333 523.515 75 527.115 75C534.182 75 537.649 80.3333 537.515 91L536.315 126.4C535.915 141.333 539.915 148.8 548.315 148.8C553.382 148.8 557.982 146.067 562.115 140.6C566.249 135.133 569.515 127.333 571.915 117.2C574.449 107.067 575.849 95.2 576.115 81.6V78C576.115 77.2 576.649 76.5333 577.715 76C578.782 75.4667 580.249 75.2 582.115 75.2Z" fill="url(#paint1_linear_454_3330)"/>
<path d="M217.554 167.801C217.682 167.801 217.778 167.854 217.842 167.961C217.927 168.046 217.97 168.131 217.97 168.217V168.345C216.583 168.345 215.389 168.75 214.386 169.561C212.978 170.713 212.274 172.099 212.274 173.721C212.274 174.425 212.423 175.129 212.722 175.833C213.191 176.985 214.055 177.87 215.314 178.489C215.826 176.59 216.882 174.969 218.482 173.625C220.103 172.259 222.087 171.577 224.434 171.577C226.205 171.577 227.335 172.174 227.826 173.369C227.975 173.731 228.05 174.105 228.05 174.489C228.05 175.278 227.73 176.11 227.09 176.985C225.511 179.075 222.983 180.121 219.506 180.121C218.439 180.121 217.511 180.025 216.722 179.833C216.658 180.238 216.626 180.665 216.626 181.113C216.626 181.561 216.701 182.009 216.85 182.457C218.151 181.987 219.527 181.753 220.978 181.753C222.45 181.753 223.346 182.126 223.666 182.873C223.73 183.043 223.762 183.203 223.762 183.353C223.762 183.801 223.421 184.249 222.738 184.697C222.055 185.145 220.999 185.369 219.57 185.369C218.141 185.369 216.989 184.878 216.114 183.897C214.215 185.113 212.818 186.905 211.922 189.273C211.325 190.851 211.026 192.387 211.026 193.881C211.026 194.627 211.101 195.353 211.25 196.057C211.698 198.233 212.743 199.694 214.386 200.441C214.386 200.377 214.386 200.313 214.386 200.249C214.386 198.265 214.706 196.323 215.346 194.425C216.007 192.526 217.042 190.894 218.45 189.529C219.858 188.142 221.479 187.449 223.314 187.449C225.149 187.449 226.333 188.281 226.866 189.945C227.058 190.542 227.154 191.161 227.154 191.801C227.154 192.974 226.834 194.254 226.194 195.641C225.085 198.009 223.41 199.726 221.17 200.793C219.805 201.433 218.333 201.753 216.754 201.753C216.498 201.753 216.157 201.731 215.73 201.689C215.794 203.438 216.189 204.857 216.914 205.945C217.639 207.033 218.685 207.577 220.05 207.577C219.965 207.939 219.698 208.121 219.25 208.121C217.821 208.121 216.69 207.502 215.858 206.265C215.047 205.027 214.578 203.427 214.45 201.465C212.914 201.081 211.677 200.323 210.738 199.193C209.586 197.827 209.01 196.089 209.01 193.977C209.01 192.889 209.17 191.683 209.49 190.361C209.81 189.017 210.514 187.651 211.602 186.265C212.69 184.857 214.002 183.769 215.538 183.001C215.197 182.275 215.026 181.593 215.026 180.953C215.026 180.291 215.058 179.737 215.122 179.289C214.162 178.841 213.383 178.243 212.786 177.497C211.975 176.451 211.57 175.289 211.57 174.009C211.57 172.579 211.975 171.289 212.786 170.137C213.298 169.454 213.97 168.899 214.802 168.473C215.634 168.025 216.551 167.801 217.554 167.801ZM223.57 188.217C222.141 188.217 220.807 188.889 219.57 190.233C218.354 191.555 217.415 193.177 216.754 195.097C216.114 197.017 215.773 198.926 215.73 200.825C216.029 200.889 216.349 200.921 216.69 200.921C219.805 200.921 222.29 199.715 224.146 197.305C225.511 195.534 226.194 193.731 226.194 191.897C226.194 190.062 225.661 188.91 224.594 188.441C224.295 188.291 223.954 188.217 223.57 188.217ZM219.474 179.321C221.949 179.321 223.89 178.553 225.298 177.017C226.13 176.121 226.546 175.246 226.546 174.393C226.546 174.201 226.535 174.019 226.514 173.849C226.258 172.846 225.49 172.334 224.21 172.313C222.461 172.313 220.903 172.995 219.538 174.361C218.194 175.726 217.309 177.294 216.882 179.065C217.671 179.235 218.535 179.321 219.474 179.321ZM220.978 182.457C219.655 182.457 218.407 182.723 217.234 183.257C217.81 184.153 218.77 184.601 220.114 184.601C221.479 184.601 222.354 184.302 222.738 183.705C222.823 183.555 222.866 183.427 222.866 183.321C222.866 183.043 222.674 182.83 222.29 182.681C221.927 182.531 221.49 182.457 220.978 182.457ZM238.212 177.785C238.98 175.779 239.364 174.414 239.364 173.689C239.364 172.963 239.183 172.579 238.82 172.537C237.817 172.537 236.772 174.147 235.684 177.369C234.617 180.569 233.775 183.897 233.156 187.353C232.559 190.787 232.26 193.219 232.26 194.649C232.26 197.059 232.857 198.265 234.052 198.265C234.052 198.414 233.956 198.563 233.764 198.713C233.572 198.862 233.348 198.937 233.092 198.937C231.343 198.937 230.468 197.369 230.468 194.233C230.468 193.081 230.681 191.321 231.108 188.953C231.535 186.563 232.089 184.067 232.772 181.465C233.455 178.862 234.34 176.601 235.428 174.681C236.516 172.739 237.625 171.769 238.756 171.769C239.652 171.769 240.1 172.334 240.1 173.465C240.1 174.318 239.833 175.513 239.3 177.049C238.276 180.035 236.804 183.022 234.884 186.009C234.372 186.798 233.913 187.438 233.508 187.929C233.401 188.057 233.348 188.014 233.348 187.801C233.327 187.395 233.423 187.043 233.636 186.745C235.385 184.121 236.911 181.134 238.212 177.785ZM239.582 193.177C239.582 195.758 240.5 197.049 242.334 197.049C243.017 197.049 243.732 196.75 244.478 196.153C245.246 195.534 245.94 194.798 246.558 193.945C247.924 191.982 248.884 190.382 249.438 189.145L249.854 188.249H250.718C250.356 189.102 249.822 190.158 249.118 191.417C248.414 192.654 247.742 193.699 247.102 194.553C246.462 195.406 245.705 196.185 244.83 196.889C243.956 197.571 243.124 197.913 242.334 197.913C239.177 197.913 237.598 196.142 237.598 192.601C237.598 190.958 238.078 189.315 239.038 187.673C240.361 185.39 241.993 184.249 243.934 184.249C245.3 184.249 245.982 184.995 245.982 186.489C245.982 187.598 245.556 188.75 244.702 189.945C243.508 191.566 242.11 192.387 240.51 192.409C240.276 192.409 240.126 192.302 240.062 192.089L240.03 191.961C241.14 191.961 242.196 191.235 243.198 189.785C244.222 188.313 244.734 187.086 244.734 186.105C244.734 185.443 244.478 185.113 243.966 185.113C242.836 185.113 241.78 186.105 240.798 188.089C239.988 189.774 239.582 191.47 239.582 193.177ZM258.413 186.169C258.946 186.169 259.213 186.617 259.213 187.513C259.213 188.153 258.861 190.009 258.157 193.081C257.453 196.131 256.824 198.659 256.269 200.665C255.714 202.67 255.192 204.153 254.701 205.113C254.21 206.094 253.613 207.075 252.909 208.057C252.226 209.038 251.469 209.71 250.637 210.073C249.805 210.435 248.845 210.617 247.757 210.617C245.73 210.617 244.717 209.582 244.717 207.513C244.717 206.297 245.176 204.985 246.093 203.577C247.416 201.507 249.186 200.142 251.405 199.481C252.194 199.246 253.016 199.129 253.869 199.129C254.018 199.129 254.093 199.278 254.093 199.577C254.093 199.875 254.018 200.025 253.869 200.025C251.352 200.025 249.24 201.017 247.533 203.001C246.274 204.494 245.645 205.934 245.645 207.321C245.645 208.707 246.178 209.507 247.245 209.721L247.757 209.753C249.506 209.753 250.893 209.027 251.917 207.577C252.962 206.105 253.784 204.249 254.381 202.009C254.978 199.747 255.746 196.206 256.685 191.385H256.429C254.125 195.715 252.226 197.881 250.733 197.881C249.048 197.881 248.205 196.611 248.205 194.073C248.205 192.601 248.589 190.99 249.357 189.241C250.424 186.873 251.778 185.326 253.421 184.601C253.997 184.366 254.573 184.249 255.149 184.249C255.746 184.249 256.216 184.419 256.557 184.761C256.898 185.102 257.069 185.486 257.069 185.913C257.069 186.105 256.962 186.201 256.749 186.201C256.557 186.179 256.461 186.073 256.461 185.881C256.461 185.689 256.354 185.518 256.141 185.369C255.949 185.198 255.661 185.113 255.277 185.113C253.933 185.113 252.717 186.318 251.629 188.729C250.605 190.969 250.093 193.091 250.093 195.097C250.093 196.334 250.36 196.953 250.893 196.953C251.597 196.953 252.514 196.121 253.645 194.457C255.352 191.939 256.685 189.475 257.645 187.065C257.901 186.467 258.157 186.169 258.413 186.169ZM263.155 197.881C261.469 197.881 260.627 196.611 260.627 194.073C260.627 192.601 261.011 190.99 261.779 189.241C262.845 186.873 264.2 185.326 265.843 184.601C266.419 184.366 266.995 184.249 267.571 184.249C268.168 184.249 268.637 184.419 268.979 184.761C269.32 185.102 269.491 185.486 269.491 185.913C269.491 186.105 269.384 186.201 269.171 186.201C268.979 186.179 268.883 186.073 268.883 185.881C268.883 185.689 268.776 185.518 268.563 185.369C268.371 185.198 268.083 185.113 267.699 185.113C266.355 185.113 265.139 186.318 264.051 188.729C263.027 190.969 262.515 193.091 262.515 195.097C262.515 196.334 262.781 196.953 263.315 196.953C263.869 196.953 264.531 196.494 265.299 195.577C266.088 194.638 266.813 193.55 267.475 192.313C268.904 189.71 269.747 188.035 270.003 187.289C270.259 186.542 270.536 186.169 270.835 186.169C271.368 186.169 271.635 186.617 271.635 187.513C271.635 187.79 271.603 188.11 271.539 188.473C270.835 191.886 270.451 193.859 270.387 194.393C270.344 194.926 270.323 195.31 270.323 195.545C270.323 196.569 270.568 197.081 271.059 197.081C271.613 197.081 272.392 196.345 273.395 194.873C274.397 193.401 275.261 191.929 275.987 190.457L277.075 188.249H277.939C277.811 188.505 277.64 188.857 277.427 189.305C277.235 189.731 276.84 190.51 276.243 191.641C275.645 192.75 275.069 193.731 274.515 194.585C273.981 195.438 273.373 196.217 272.691 196.921C272.029 197.603 271.453 197.945 270.963 197.945C269.384 197.945 268.595 196.793 268.595 194.489C268.595 193.721 268.68 192.825 268.851 191.801H268.627C266.451 195.854 264.627 197.881 263.155 197.881ZM276.544 197.849C275.947 197.849 275.648 197.39 275.648 196.473C275.648 195.982 276.246 192.409 277.44 185.753C277.504 185.305 277.696 185.081 278.016 185.081C278.4 185.081 278.688 185.358 278.88 185.913C278.987 186.211 279.04 186.542 279.04 186.905C279.04 187.246 278.998 187.619 278.912 188.025L278.4 190.585H278.592C280.512 186.275 282.347 184.121 284.096 184.121C284.779 184.121 285.302 184.334 285.664 184.761C286.027 185.166 286.208 185.731 286.208 186.457C286.208 187.182 285.92 188.75 285.344 191.161C284.768 193.571 284.48 195.246 284.48 196.185C284.48 197.571 284.736 198.265 285.248 198.265C285.248 198.414 285.152 198.563 284.96 198.713C284.768 198.862 284.544 198.937 284.288 198.937C283.051 198.937 282.432 197.966 282.432 196.025C282.432 194.83 282.752 193.027 283.392 190.617C284.054 188.185 284.384 186.638 284.384 185.977C284.384 185.294 284.118 184.953 283.584 184.953C282.816 184.953 281.888 185.955 280.8 187.961C279.734 189.966 278.87 191.886 278.208 193.721C277.568 195.534 277.195 196.675 277.088 197.145C277.003 197.614 276.822 197.849 276.544 197.849ZM290.8 193.305C290.8 195.801 291.664 197.049 293.392 197.049C294.075 197.049 294.79 196.75 295.536 196.153C296.304 195.534 296.998 194.798 297.616 193.945C298.982 191.982 299.942 190.382 300.496 189.145L300.912 188.249H301.776C301.414 189.102 300.88 190.158 300.176 191.417C299.472 192.654 298.8 193.699 298.16 194.553C297.52 195.406 296.763 196.185 295.888 196.889C295.014 197.571 294.182 197.913 293.392 197.913C291.174 197.913 289.766 196.899 289.168 194.873C288.976 194.233 288.88 193.433 288.88 192.473C288.88 191.491 289.179 190.297 289.776 188.889C290.651 186.798 291.846 185.39 293.36 184.665C293.958 184.387 294.544 184.249 295.12 184.249C295.718 184.249 296.187 184.409 296.528 184.729C296.934 185.113 297.136 185.561 297.136 186.073C297.136 186.563 297.083 187.022 296.976 187.449C296.87 187.875 296.646 188.259 296.304 188.601C295.984 188.921 295.622 189.081 295.216 189.081C295.046 189.081 294.918 188.963 294.832 188.729C295.003 188.729 295.227 188.43 295.504 187.833C295.803 187.214 295.952 186.606 295.952 186.009C295.952 185.411 295.696 185.113 295.184 185.113C294.075 185.113 293.062 186.041 292.144 187.897C291.248 189.753 290.8 191.555 290.8 193.305ZM301.692 193.177C301.692 195.758 302.609 197.049 304.444 197.049C305.126 197.049 305.841 196.75 306.588 196.153C307.356 195.534 308.049 194.798 308.668 193.945C310.033 191.982 310.993 190.382 311.548 189.145L311.964 188.249H312.828C312.465 189.102 311.932 190.158 311.228 191.417C310.524 192.654 309.852 193.699 309.212 194.553C308.572 195.406 307.814 196.185 306.94 196.889C306.065 197.571 305.233 197.913 304.444 197.913C301.286 197.913 299.708 196.142 299.708 192.601C299.708 190.958 300.188 189.315 301.148 187.673C302.47 185.39 304.102 184.249 306.044 184.249C307.409 184.249 308.092 184.995 308.092 186.489C308.092 187.598 307.665 188.75 306.812 189.945C305.617 191.566 304.22 192.387 302.62 192.409C302.385 192.409 302.236 192.302 302.172 192.089L302.14 191.961C303.249 191.961 304.305 191.235 305.308 189.785C306.332 188.313 306.844 187.086 306.844 186.105C306.844 185.443 306.588 185.113 306.076 185.113C304.945 185.113 303.889 186.105 302.908 188.089C302.097 189.774 301.692 191.47 301.692 193.177ZM337.14 175.449C337.438 175.449 337.63 175.577 337.716 175.833L337.78 175.993C336.862 175.993 336.18 176.547 335.732 177.657C335.305 178.745 334.974 180.355 334.74 182.489C336.553 182.83 337.94 183.897 338.9 185.689C340.265 184.814 341.321 183.641 342.068 182.169C342.836 180.697 343.22 179.246 343.22 177.817C343.22 176.387 342.676 175.15 341.588 174.105C340.521 173.059 338.985 172.537 336.98 172.537C333.118 172.537 330.132 173.913 328.02 176.665C326.548 178.606 325.812 180.675 325.812 182.873C325.812 185.07 326.377 186.553 327.508 187.321C327.977 187.619 328.489 187.769 329.044 187.769C328.83 188.259 328.5 188.505 328.052 188.505C326.452 188.505 325.332 187.662 324.692 185.977C324.372 185.166 324.212 184.249 324.212 183.225C324.212 182.179 324.446 181.017 324.916 179.737C325.897 176.942 327.668 174.83 330.228 173.401C332.19 172.291 334.441 171.737 336.98 171.737C338.793 171.737 340.329 172.025 341.588 172.601C342.846 173.177 343.753 173.913 344.308 174.809C344.905 175.811 345.204 176.889 345.204 178.041C345.204 179.171 344.98 180.259 344.532 181.305C344.105 182.35 343.433 183.374 342.516 184.377C341.62 185.358 340.564 186.147 339.348 186.745C339.881 188.131 340.361 190.713 340.788 194.489C340.937 195.705 341.14 196.889 341.396 198.041C341.95 200.473 343.134 201.689 344.948 201.689C344.905 202.073 344.628 202.265 344.116 202.265C341.513 202.265 339.934 201.027 339.38 198.553C339.102 197.379 338.921 196.195 338.836 195.001C338.772 193.806 338.708 192.451 338.644 190.937C338.58 189.401 338.43 188.163 338.196 187.225C337.022 187.651 335.774 187.865 334.452 187.865H334.164C333.566 192.494 332.553 195.662 331.124 197.369C330.548 198.073 329.79 198.659 328.852 199.129C327.934 199.598 326.91 199.833 325.78 199.833C324.67 199.833 323.732 199.641 322.964 199.257C322.217 198.873 321.673 198.382 321.332 197.785C320.862 196.91 320.628 196.11 320.628 195.385C320.628 194.659 320.734 193.987 320.948 193.369C321.161 192.729 321.47 192.11 321.876 191.513C322.281 190.894 322.814 190.393 323.476 190.009C324.137 189.625 324.852 189.433 325.62 189.433C326.046 189.433 326.345 189.582 326.516 189.881L326.58 190.041C324.724 190.041 323.305 190.83 322.324 192.409C321.769 193.305 321.492 194.222 321.492 195.161C321.492 195.587 321.545 196.025 321.652 196.473C322.121 198.137 323.294 198.969 325.172 198.969C326.068 198.969 326.868 198.745 327.572 198.297C328.297 197.849 328.884 197.294 329.332 196.633C329.801 195.971 330.228 195.097 330.612 194.009C331.188 192.323 331.7 190.158 332.148 187.513C331.337 187.235 330.761 186.841 330.42 186.329C330.078 185.795 329.908 185.39 329.908 185.113C329.908 184.835 329.908 184.643 329.908 184.537C330.014 183.982 330.334 183.491 330.868 183.065C331.422 182.617 332.137 182.382 333.012 182.361C333.289 180.91 333.577 179.726 333.876 178.809C334.174 177.87 334.601 177.081 335.156 176.441C335.71 175.779 336.372 175.449 337.14 175.449ZM334.42 187.033C335.614 187.033 336.777 186.777 337.908 186.265C337.268 184.579 336.19 183.566 334.676 183.225L334.292 187.033H334.42ZM332.884 183.097C332.116 183.161 331.572 183.395 331.252 183.801C330.932 184.185 330.772 184.505 330.772 184.761C330.772 185.635 331.273 186.275 332.276 186.681C332.532 185.059 332.734 183.865 332.884 183.097ZM347.238 193.177C347.238 195.758 348.156 197.049 349.99 197.049C350.673 197.049 351.388 196.75 352.134 196.153C352.902 195.534 353.596 194.798 354.214 193.945C355.58 191.982 356.54 190.382 357.094 189.145L357.51 188.249H358.374C358.012 189.102 357.478 190.158 356.774 191.417C356.07 192.654 355.398 193.699 354.758 194.553C354.118 195.406 353.361 196.185 352.486 196.889C351.612 197.571 350.78 197.913 349.99 197.913C346.833 197.913 345.254 196.142 345.254 192.601C345.254 190.958 345.734 189.315 346.694 187.673C348.017 185.39 349.649 184.249 351.59 184.249C352.956 184.249 353.638 184.995 353.638 186.489C353.638 187.598 353.212 188.75 352.358 189.945C351.164 191.566 349.766 192.387 348.166 192.409C347.932 192.409 347.782 192.302 347.718 192.089L347.686 191.961C348.796 191.961 349.852 191.235 350.854 189.785C351.878 188.313 352.39 187.086 352.39 186.105C352.39 185.443 352.134 185.113 351.622 185.113C350.492 185.113 349.436 186.105 348.454 188.089C347.644 189.774 347.238 191.47 347.238 193.177ZM357.013 197.849C356.416 197.849 356.117 197.39 356.117 196.473C356.117 195.982 356.715 192.409 357.909 185.753C357.973 185.305 358.165 185.081 358.485 185.081C358.869 185.081 359.157 185.358 359.349 185.913C359.456 186.211 359.509 186.542 359.509 186.905C359.509 187.246 359.467 187.619 359.381 188.025L358.869 190.585H359.061C360.981 186.275 362.816 184.121 364.565 184.121C365.248 184.121 365.771 184.334 366.133 184.761C366.496 185.166 366.677 185.731 366.677 186.457C366.677 187.182 366.389 188.75 365.813 191.161C365.237 193.571 364.949 195.246 364.949 196.185C364.949 197.571 365.205 198.265 365.717 198.265C365.717 198.414 365.621 198.563 365.429 198.713C365.237 198.862 365.013 198.937 364.757 198.937C363.52 198.937 362.901 197.966 362.901 196.025C362.901 194.83 363.221 193.027 363.861 190.617C364.523 188.185 364.853 186.638 364.853 185.977C364.853 185.294 364.587 184.953 364.053 184.953C363.285 184.953 362.357 185.955 361.269 187.961C360.203 189.966 359.339 191.886 358.677 193.721C358.037 195.534 357.664 196.675 357.557 197.145C357.472 197.614 357.291 197.849 357.013 197.849ZM369.605 183.865C369.605 183.63 369.754 183.513 370.053 183.513H371.717C371.824 183.086 371.962 182.553 372.133 181.913L372.581 180.249C372.709 179.758 372.816 179.31 372.901 178.905C373.008 178.499 373.2 178.297 373.477 178.297C373.84 178.297 374.096 178.574 374.245 179.129C374.309 179.363 374.341 179.651 374.341 179.993C374.341 180.334 374.277 180.771 374.149 181.305L373.541 183.513H375.525C375.717 183.513 375.845 183.577 375.909 183.705C375.994 183.833 375.994 183.961 375.909 184.089C375.845 184.195 375.717 184.249 375.525 184.249H373.349C372.026 189.219 371.365 192.739 371.365 194.809C371.365 196.323 371.706 197.081 372.389 197.081C372.944 197.081 373.722 196.345 374.725 194.873C375.728 193.401 376.592 191.929 377.317 190.457L378.405 188.249H379.269C379.141 188.505 378.97 188.857 378.757 189.305C378.565 189.731 378.17 190.51 377.573 191.641C376.976 192.75 376.4 193.731 375.845 194.585C375.312 195.438 374.704 196.217 374.021 196.921C373.36 197.603 372.741 197.945 372.165 197.945C371.589 197.945 371.088 197.763 370.661 197.401C370.256 197.017 370 196.483 369.893 195.801C369.765 195.097 369.701 194.382 369.701 193.657C369.701 191.971 370.298 188.835 371.493 184.249H370.053C369.882 184.249 369.765 184.206 369.701 184.121C369.637 184.014 369.605 183.929 369.605 183.865ZM379.192 193.177C379.192 195.758 380.109 197.049 381.944 197.049C382.626 197.049 383.341 196.75 384.088 196.153C384.856 195.534 385.549 194.798 386.168 193.945C387.533 191.982 388.493 190.382 389.048 189.145L389.464 188.249H390.328C389.965 189.102 389.432 190.158 388.728 191.417C388.024 192.654 387.352 193.699 386.712 194.553C386.072 195.406 385.314 196.185 384.44 196.889C383.565 197.571 382.733 197.913 381.944 197.913C378.786 197.913 377.208 196.142 377.208 192.601C377.208 190.958 377.688 189.315 378.648 187.673C379.97 185.39 381.602 184.249 383.544 184.249C384.909 184.249 385.592 184.995 385.592 186.489C385.592 187.598 385.165 188.75 384.312 189.945C383.117 191.566 381.72 192.387 380.12 192.409C379.885 192.409 379.736 192.302 379.672 192.089L379.64 191.961C380.749 191.961 381.805 191.235 382.808 189.785C383.832 188.313 384.344 187.086 384.344 186.105C384.344 185.443 384.088 185.113 383.576 185.113C382.445 185.113 381.389 186.105 380.408 188.089C379.597 189.774 379.192 191.47 379.192 193.177ZM400.87 179.897C400.252 182.137 399.761 184.003 399.398 185.497C399.057 186.969 398.673 188.686 398.246 190.649C397.841 192.59 397.638 194.147 397.638 195.321C397.638 196.494 397.905 197.081 398.438 197.081C399.014 197.081 399.804 196.345 400.806 194.873C401.83 193.401 402.705 191.929 403.43 190.457L404.486 188.249H405.35C405.222 188.505 405.052 188.857 404.838 189.305C404.646 189.731 404.252 190.51 403.654 191.641C403.057 192.75 402.481 193.731 401.926 194.585C401.393 195.438 400.785 196.217 400.102 196.921C399.42 197.603 398.833 197.945 398.342 197.945C396.806 197.945 396.038 196.814 396.038 194.553C396.038 193.721 396.156 192.633 396.39 191.289H396.134C393.766 195.683 391.846 197.881 390.374 197.881C388.689 197.881 387.846 196.611 387.846 194.073C387.846 192.601 388.23 190.99 388.998 189.241C390.065 186.873 391.42 185.326 393.062 184.601C393.638 184.366 394.214 184.249 394.79 184.249C395.388 184.249 395.857 184.419 396.198 184.761C396.54 185.102 396.71 185.486 396.71 185.913C396.71 186.105 396.604 186.201 396.39 186.201C396.198 186.179 396.102 186.073 396.102 185.881C396.102 185.689 395.996 185.518 395.782 185.369C395.59 185.198 395.302 185.113 394.918 185.113C393.574 185.113 392.358 186.318 391.27 188.729C390.246 190.969 389.734 193.091 389.734 195.097C389.734 196.334 390.001 196.953 390.534 196.953C391.26 196.953 392.166 196.163 393.254 194.585C394.342 193.006 395.292 191.31 396.102 189.497C396.934 187.683 397.521 186.03 397.862 184.537C398.225 183.022 398.769 180.963 399.494 178.361C399.964 176.675 400.582 175.833 401.35 175.833C401.521 175.833 401.649 175.897 401.734 176.025C401.82 176.131 401.852 176.249 401.83 176.377C401.809 176.483 401.489 177.657 400.87 179.897ZM409.502 192.953C409.033 192.953 408.798 192.483 408.798 191.545C408.798 191.331 408.841 190.905 408.926 190.265C409.033 189.625 409.438 186.841 410.142 181.913C410.846 176.963 411.284 173.902 411.454 172.729C411.518 172.281 411.732 172.057 412.094 172.057C412.478 172.057 412.777 172.291 412.99 172.761C413.225 173.209 413.342 173.625 413.342 174.009C413.342 174.371 413.31 174.702 413.246 175.001C413.118 175.705 412.052 181.475 410.046 192.313C409.961 192.739 409.78 192.953 409.502 192.953ZM408.926 195.545C409.417 195.545 409.662 195.875 409.662 196.537C409.662 197.198 409.342 197.731 408.702 198.137C408.382 198.35 408.105 198.457 407.87 198.457C407.529 198.457 407.316 198.318 407.23 198.041C407.422 198.041 407.561 197.838 407.646 197.433C407.732 197.006 407.86 196.59 408.03 196.185C408.222 195.758 408.521 195.545 408.926 195.545Z" fill="url(#paint2_linear_454_3330)"/>
<defs>
<linearGradient id="paint0_linear_454_3330" x1="22.0909" y1="37.898" x2="204.592" y2="72.4086" gradientUnits="userSpaceOnUse">
<stop stop-color="#93642A"/>
<stop offset="0.22016" stop-color="#BB9B57"/>
<stop offset="0.36979" stop-color="#BB9B57"/>
<stop offset="0.526042" stop-color="#F1E695"/>
<stop offset="0.666668" stop-color="#B49250"/>
<stop offset="0.859379" stop-color="#B49250"/>
<stop offset="1" stop-color="#93642A"/>
</linearGradient>
<linearGradient id="paint1_linear_454_3330" x1="204.044" y1="34.5" x2="580.544" y2="211" gradientUnits="userSpaceOnUse">
<stop stop-color="#93642A"/>
<stop offset="0.22016" stop-color="#BB9B57"/>
<stop offset="0.36979" stop-color="#BB9B57"/>
<stop offset="0.526042" stop-color="#F1E695"/>
<stop offset="0.666668" stop-color="#B49250"/>
<stop offset="0.859379" stop-color="#B49250"/>
<stop offset="1" stop-color="#93642A"/>
</linearGradient>
<linearGradient id="paint2_linear_454_3330" x1="217.177" y1="168.525" x2="334.58" y2="282.454" gradientUnits="userSpaceOnUse">
<stop stop-color="#93642A"/>
<stop offset="0.22016" stop-color="#BB9B57"/>
<stop offset="0.36979" stop-color="#BB9B57"/>
<stop offset="0.526042" stop-color="#F1E695"/>
<stop offset="0.666668" stop-color="#B49250"/>
<stop offset="0.859379" stop-color="#B49250"/>
<stop offset="1" stop-color="#93642A"/>
</linearGradient>
</defs>
</svg>
