<svg width="617" height="236" viewBox="0 0 617 236" fill="none" xmlns="http://www.w3.org/2000/svg">
<path d="M156.471 31.1074C156.91 24.6262 155.592 21.0984 151.867 19.2177M151.867 19.2177C147.241 16.8815 139.618 17.5847 135.428 24.1717C126.485 39.4964 121.619 48.3917 120.304 50.9238C119.91 51.8059 119.51 52.6866 119.103 53.566M151.867 19.2177C145.949 18.8134 137.072 34.4102 137.072 34.4102C137.072 34.4102 126.411 47.073 119.103 53.566M119.103 53.566C91.2355 113.857 34.5355 167.723 15.0918 182.372M139.373 30.7772C143.355 32.5369 146.34 31.8967 149.566 29.456C152.584 27.0203 154.408 27.2148 156.47 30.7772M129.51 46.6303C129.51 46.6303 149.566 62.1531 147.264 63.4742M143.648 54.5568C152.695 64.0234 153.288 65.3677 152.854 66.4466M148.579 69.4191C143.776 73.918 141.414 74.3701 137.729 71.731M131.154 50.2633C134.839 53.7722 135.477 56.7826 133.455 64.465M125.564 49.6027C122.605 47.9514 123.263 83.2905 124.578 86.5932M132.469 58.1898C133.455 62.4833 131.811 74.7034 131.811 80.318M127.537 89.2354C136.2 96.068 144.305 100.134 151.867 104.758C159.028 109.136 157.639 108.777 157.472 108.726C157.462 108.723 157.457 108.721 157.457 108.721M153.511 98.483C143.648 94.1895 137.729 84.6116 130.167 80.318M127.537 94.1895C114.386 110.373 132.469 128.207 123.263 139.437M62.4372 190.959C99.2614 187.326 123.263 166.189 133.455 136.795M129.51 156.281C110.925 187.672 93.3433 198.886 62.4372 201.858M135.757 151.657C120.961 198.225 76.2463 223.656 70.9857 213.748M138.058 152.978C138.058 179.4 123.263 205.821 110.111 207.803M125.236 212.427C131.927 204.505 134.877 198.615 138.058 184.354M142.99 140.428C145.292 181.712 140.689 201.858 139.374 210.115M147.593 151.657C151.2 176.189 153.393 189.762 158.772 212.427M158.772 183.033C160.646 194.856 162.175 201.334 166.334 212.427M166.334 212.427C164.807 217.156 163.185 216.549 157.786 214.408C156.799 216.72 153.967 217.117 151.867 213.748C147.481 219.016 144.609 219.805 138.058 213.748C131.757 216.916 128.412 217.828 123.263 215.73M166.334 212.427C168.744 215.406 171.266 215.069 173.896 212.427M151.867 107.731C145.987 129.06 158.608 165.714 173.605 209.269L173.896 210.115M117.345 73.3823C85.7811 131.18 62.4372 175.436 35.8054 184.354M92.3569 127.217C81.5069 151.657 54.2175 193.271 40.0797 190.959M72.6296 181.139C65.9049 183.518 58.4934 185.551 50.2721 187.326M72.6296 181.139C86.7608 173.359 96.8539 144.949 115.043 92.2078M72.6296 181.139C80.524 178.345 87.4719 175.074 93.6721 171.181M120.961 143.4C113.505 155.216 104.791 164.199 93.6721 171.181M93.6721 171.181C103.536 154.96 111.755 143.4 117.345 108.721M17.3933 187.326C21.9426 189.679 24.5303 189.56 29.2297 186.005M30.5448 188.978C34.3971 191.049 36.171 190.851 38.4357 187.326M47.9706 190.959C42.3812 195.253 51.916 193.601 51.916 193.601M56.519 193.601C45.9978 197.234 51.916 201.858 62.4372 199.546M56.519 203.84C50.8132 209.756 80.5205 215.006 100.248 197.565M87.0963 213.748C89.3978 217.051 102.866 219.074 105.837 210.115M110.111 210.115C108.187 214.423 115.043 218.372 120.961 213.748M149.396 41.4432C149.39 41.3938 149.394 41.3559 149.404 41.3275M149.404 41.3275C149.481 41.1163 149.916 41.4366 149.528 41.4834M149.404 41.3275C149.352 41.3329 149.313 41.3568 149.295 41.3846M149.404 41.3275C149.44 41.3238 149.482 41.3289 149.527 41.3478C149.576 41.3688 149.564 41.4269 149.528 41.4834M149.528 41.4834C149.498 41.487 149.464 41.4889 149.424 41.4889C149.376 41.4889 149.341 41.4812 149.319 41.4691M149.528 41.4834C149.488 41.548 149.417 41.6104 149.377 41.6127C149.239 41.6205 148.801 41.6057 149.047 41.4137C149.166 41.3207 149.254 41.3353 149.295 41.3846M149.319 41.4691C149.28 41.4481 149.275 41.4141 149.295 41.3846M149.319 41.4691C149.322 41.4383 149.313 41.4077 149.295 41.3846M149.319 41.4691C149.313 41.5205 149.274 41.5722 149.193 41.5887M149.387 41.4598C148.722 41.6654 147.711 41.3365 147.12 41.0483M148.311 42.3784L148.32 42.3701M148.444 42.3618C148.421 42.3965 148.321 42.5998 148.264 42.5557C148.254 42.5478 148.236 42.5326 148.217 42.5145M148.217 42.5145C148.204 42.5024 148.191 42.489 148.178 42.4756M148.217 42.5145C148.24 42.4791 148.402 42.4363 148.18 42.3881C148.169 42.3855 148.159 42.3844 148.152 42.3845M148.217 42.5145C148.212 42.5216 148.213 42.5284 148.224 42.535C148.272 42.5635 148.216 42.5629 148.178 42.4756M148.178 42.4756C148.137 42.4307 148.107 42.3851 148.152 42.3845M148.178 42.4756C148.171 42.4592 148.164 42.4397 148.159 42.4167C148.157 42.406 148.154 42.3952 148.152 42.3845M148.152 42.3845C148.047 41.9558 147.768 41.5773 147.488 41.2354M148.423 42.3451C148.273 42.2302 147.975 41.4941 147.894 41.3684M149.292 41.2437C149.591 41.2437 148.704 41.3767 148.405 41.3767C148.046 41.3767 147.747 41.2494 147.401 41.2021M157.308 109.574C157.27 109.564 157.097 110.007 157.018 110.131M153.444 67.8839C153.444 69.941 151.997 71.6243 150.621 73.0318C149.857 73.8128 149.375 74.7955 149.204 75.8756C149.092 76.5788 149.119 77.3102 149.19 78.0146M157.672 109.861C157.655 109.843 157.65 109.842 157.649 109.872M155.482 26.5636C155.459 26.5636 155.365 26.4704 155.332 26.454C155.021 26.3001 154.758 26.0595 154.445 25.9043C153.956 25.6621 153.213 25.6188 152.667 25.6188C152.047 25.6188 151.514 25.7215 150.938 25.9541C149.415 26.569 148.191 27.7477 146.84 28.65C145.905 29.2744 144.879 29.6564 143.896 30.184C143.035 30.6464 141.876 30.9876 140.953 30.5719M155.491 25.0771C155.486 24.9835 155.412 24.9264 155.358 24.8568C154.93 24.3051 154.382 24.1849 153.754 24.0353C152.513 23.7396 151.186 23.5091 149.946 23.9998C149.274 24.2661 148.595 24.7729 147.991 25.1738C147.106 25.762 146.507 26.6073 145.746 27.3342C145.112 27.9399 144.623 28.7067 143.975 29.2906C142.879 30.2772 141.44 30.5918 140.012 30.4034M154.64 22.8564C154.49 22.7249 154.486 22.6076 154.272 22.4932C153.492 22.0757 152.724 21.7864 151.844 21.6691C151.148 21.5762 150.547 21.6387 149.908 21.9085C149.323 22.1558 148.942 22.545 148.43 22.9085C147.392 23.6445 146.596 24.6069 145.769 25.5529C145.216 26.185 144.884 26.9514 144.306 27.5667C143.336 28.6012 142.176 29.3884 140.899 29.9821M140.162 34.0162C140.142 34.0079 140.123 33.9722 140.104 33.932M140.104 33.932C140.082 33.8848 140.06 33.8315 140.033 33.8093M140.104 33.932C140.08 34.1144 140.01 34.3024 139.946 34.3742C139.89 34.4374 139.826 34.4685 139.763 34.4748M140.104 33.932C140.112 33.8745 140.116 33.8176 140.113 33.7651M140.033 33.8093L140.03 33.8071C139.945 33.744 139.854 33.725 139.768 33.7375M140.033 33.8093C140.048 33.9944 139.921 34.3243 139.763 34.4748M140.033 33.8093C140.031 33.7806 140.025 33.7554 140.016 33.7349M139.768 33.7375C139.496 33.7773 139.27 34.1338 139.417 34.4055C139.522 34.5982 139.65 34.5821 139.763 34.4748M139.768 33.7375C139.906 33.6493 139.983 33.6646 140.016 33.7349M139.768 33.7375C139.724 33.7661 139.672 33.8055 139.614 33.8575C139.289 34.1484 139.517 34.4996 139.763 34.4748M140.016 33.7349C140.054 33.7399 140.086 33.7503 140.113 33.7651M140.016 33.7349C139.979 33.73 139.937 33.7302 139.889 33.7362M140.113 33.7651C140.104 33.5934 140.031 33.4683 139.838 33.5226C139.619 33.5842 139.396 33.7836 139.283 33.9791C138.988 34.4867 139.246 34.903 139.831 34.6487C140.131 34.5183 140.386 33.9148 140.113 33.7651ZM139.133 35.0421C139.106 34.9932 139.008 35.0945 138.979 35.1149C138.428 35.4931 138.031 36.2913 137.853 36.9265C137.816 37.0601 137.608 38.336 138.112 38.0399C139.197 37.4028 139.161 35.9961 139.306 34.9249M155.22 31.653C154.938 31.9986 154.958 32.5778 154.821 32.9943C154.705 33.3487 154.529 33.6928 154.327 34.0057C154.02 34.4786 153.363 34.6143 152.961 34.9849M152.594 33.7904C152.674 33.7815 152.454 33.6215 152.448 33.6148C152.241 33.3816 152.142 33.0065 151.961 32.7423C151.762 32.4502 151.463 32.4596 151.15 32.4695L151.117 32.4705C150.207 32.4993 149.338 32.5266 148.449 32.2673M153.143 34.9105C153.132 34.8625 153.117 35.0418 153.113 35.0649C153.025 35.5555 152.969 36.0352 152.914 36.5276C152.814 37.4283 152.814 38.3461 152.719 39.2491C152.67 39.7246 152.594 40.4163 152.182 40.7293C151.949 40.9058 151.687 40.9576 151.409 40.9073C151.108 40.8527 151.031 40.6973 150.839 40.4748C150.572 40.1648 150.177 40.033 149.988 39.6684M148.882 33.959C148.882 33.959 148.995 34.1069 149.007 34.1197C149.285 34.4161 149.46 34.7679 149.749 35.056C150.411 35.7159 151.279 35.6575 152.136 35.6993M148.953 34.0161C148.937 33.9563 148.945 33.9216 148.994 33.9823C149.203 34.2428 149.584 34.3837 149.872 34.5251C150.167 34.6699 150.436 34.7244 150.663 34.9728C150.857 35.186 150.951 35.4104 151.206 35.5707M139.895 40.9257C139.858 40.8267 139.862 40.8285 139.972 40.8285C140.514 40.8285 141.246 41.5411 141.604 41.9199C142.375 42.7349 142.822 43.8863 143.629 44.6754C144.013 45.051 144.471 45.7707 145.116 45.5031C145.778 45.2287 146.207 44.2638 146.594 43.7318M141.767 43.0174C141.619 42.9966 141.427 43.4532 141.387 43.5237C141.159 43.9354 140.869 44.335 140.607 44.7275C140.343 45.1226 139.984 45.4216 139.84 45.8902C139.633 46.5614 139.685 47.1588 139.926 47.796C140.184 48.4778 140.988 49.1403 141.457 49.6755M141.984 50.5244C142.061 50.4995 142.175 50.6691 142.224 50.7094C142.575 50.9978 142.967 51.2317 143.332 51.502C144.421 52.3096 145.004 52.9616 144.77 54.3329M155.217 83.1079C155.166 83.0372 155.03 82.9076 155.11 82.8117C155.34 82.5379 156.403 81.7667 156.725 82.3228C157.052 82.8856 156.566 83.3553 156.152 83.6656C155.73 83.9811 154.716 84.4791 154.19 84.2341C153.257 83.7993 153.698 82.8065 154.167 82.1852C154.818 81.3229 156.082 80.8433 157.129 81.1377C157.78 81.3207 158.334 81.9027 158.25 82.6185C158.166 83.331 157.497 83.9303 156.992 84.3826L156.986 84.3884C155.86 85.397 154.381 85.6473 152.935 85.2583C152.247 85.0733 151.491 84.512 151.638 83.7082C151.862 82.4825 153.334 81.5552 154.36 81.0655C155.905 80.3281 158.008 79.9314 159.13 81.6055C159.513 82.1777 159.508 82.939 159.175 83.5143C158.601 84.5085 157.639 84.8685 156.648 85.3929M165.689 81.4587C166.25 81.0626 166.95 81.8767 166.175 82.2354C165.63 82.4875 164.037 82.3374 164.276 81.4877C164.531 80.5806 165.698 80.1624 166.54 80.2094C167.15 80.2435 168.023 80.4773 168.222 81.1534C168.424 81.8357 168.06 82.6842 167.488 83.068C166.761 83.5565 165.567 83.6532 164.722 83.5366C163.864 83.4182 162.822 82.8803 162.479 82.0352C162.085 81.0645 162.886 80.11 163.707 79.6989C164.762 79.1711 165.998 79.0361 167.136 79.3163C168.001 79.529 169.098 79.9679 169.436 80.8828C169.851 82.0052 169.556 82.9064 168.756 83.7586C168.077 84.4815 166.658 84.743 165.705 84.7819C164.517 84.8303 163.511 84.6284 162.41 84.1647C161.218 83.6629 160.606 82.8229 160.722 81.52C160.867 79.8935 162.204 79.0846 163.632 78.5485C165.138 77.9829 166.468 78.071 167.86 78.7962M171.418 86.8621C171.491 86.4607 172.211 86.4918 172.488 86.4812C172.956 86.4633 172.875 86.9644 172.626 87.2166C171.906 87.9448 169.349 87.0131 170.134 85.8826C170.97 84.6775 173.318 84.7426 174.131 85.9626C175.074 87.3775 173.338 89.0426 171.934 89.1429C171.304 89.1878 170.661 89.112 170.03 89.1074L170.019 89.1073C169.385 89.1027 168.703 89.0977 168.178 88.6872C167.399 88.077 167.064 86.7507 167.591 85.8939C168.329 84.6936 169.8 84.3244 171.071 83.9567C172.105 83.6574 173.254 83.6943 174.213 84.2073C176.693 85.5329 175.901 89.0063 173.814 90.2542C173.178 90.6346 172.276 90.5938 171.563 90.6449C170.452 90.7246 169.356 90.7015 168.272 90.4033C167.174 90.1014 165.897 89.5801 165.428 88.4467C164.873 87.104 165.764 86.0408 166.576 85.0851M157.921 91.521C157.921 91.0405 160.418 92.0424 159.529 92.3658C158.834 92.6189 157.496 92.7972 156.81 92.3763C156.042 91.9042 157 90.7801 157.525 90.58C158.607 90.1674 160.08 90.3693 161.046 90.9998C161.488 91.2885 161.836 91.8018 161.881 92.339C161.938 93.0085 161.227 93.5814 160.747 93.9372C159.597 94.7883 157.955 94.5453 156.685 94.1824C155.473 93.8359 154.364 92.6035 154.967 91.2766C155.705 89.6504 157.772 89.4338 159.343 89.4988C160.744 89.5566 162.365 89.98 163.367 91.0398C164.071 91.7852 164.179 93.0981 163.633 93.9489C162.955 95.0062 161.68 95.3526 160.515 95.5456C159.176 95.7674 157.857 95.907 156.505 95.6885C155.431 95.5149 153.823 94.7274 153.583 93.5324C153.429 92.766 153.391 92.1617 153.924 91.5538C154.57 90.818 155.362 90.0237 156.223 89.5481C157.284 88.9622 158.837 88.6145 160.033 88.6094C161.941 88.6013 163.08 89.7459 164.005 91.2725M168.354 95.8667C168.27 95.7465 168.358 95.7069 168.481 95.6701C168.743 95.5918 169.021 95.7746 169.166 95.9856C169.542 96.5286 167.473 96.6959 167.112 95.9801C166.149 94.064 171.856 93.8042 170.569 96.3278C169.823 97.7913 168.582 97.9322 167.072 97.5664C166.106 97.3324 164.985 96.1073 165.408 95.0428C165.958 93.6563 167.983 93.3684 169.271 93.4185C170.395 93.4623 171.838 94.1116 172.292 95.2257C173.637 98.526 169.127 99.679 166.781 99.6223C165.808 99.5988 164.074 99.1851 163.564 98.2061C163.31 97.719 163.178 96.7633 163.233 96.2274C163.292 95.6445 163.611 95.0179 163.946 94.5495C165.467 92.4254 168.597 91.734 170.963 92.6018C172.089 93.0147 173.126 93.6318 173.695 94.7397C174.017 95.3667 174.003 95.9788 174 96.6678C173.994 98.1772 172.305 98.5877 171.158 99.2183M159.233 101.96C159.219 101.328 161.028 101.669 160.174 102.321C159.321 102.973 157.116 102.495 158.164 101.166C159.033 100.064 160.881 100.152 161.385 101.57C161.923 103.081 160.278 104.24 158.935 104.333C157.603 104.425 155.93 103.654 155.84 102.147C155.774 101.047 156.552 100.051 157.347 99.366C158.86 98.064 161.555 98.806 162.613 100.386C163.536 101.764 163.553 103.923 162.25 105.093C161.639 105.641 160.825 105.835 160.039 105.982C159.217 106.136 158.661 105.856 157.977 105.402M166.45 103.929C166.371 103.866 167.252 103.418 167.404 103.808C167.559 104.204 167.083 104.713 166.738 104.792C166.449 104.858 165.432 104.758 165.359 104.365C165.087 102.904 167.416 101.593 168.401 102.82C168.797 103.314 169.163 104.046 169.051 104.696C168.901 105.565 167.881 106.095 167.107 106.256C166.207 106.444 165.431 106.363 164.702 105.783C163.712 104.993 163.611 103.733 164.362 102.746C165.249 101.579 166.184 100.739 167.684 100.633C168.775 100.556 169.961 100.819 170.783 101.586C171.63 102.375 172.038 103.738 171.859 104.872C171.689 105.943 170.68 106.577 169.793 107.057C167.98 108.036 165.038 108.405 163.893 106.253M177.464 97.6517C177.474 97.439 177.972 97.4738 178.061 97.5176C178.904 97.9302 177.859 99.0395 177.202 98.9426C176.515 98.8413 176.688 97.6339 176.921 97.2329C177.284 96.6064 178.515 96.0482 179.187 96.5927C179.945 97.2077 179.755 98.4079 179.389 99.1635C178.879 100.218 177.428 100.902 176.319 100.609C172.926 99.7137 176.83 93.9611 179.559 95.1784C180.088 95.4144 180.502 95.9327 180.707 96.4628C181.03 97.2975 180.776 97.9352 180.433 98.7133C180.146 99.3676 179.934 100.037 179.423 100.562C178.866 101.135 178.086 101.515 177.355 101.809C176.213 102.269 174.476 102.363 173.889 101.016C173.255 99.5622 174.487 97.8736 175.213 96.686C176.096 95.2434 177.6 93.8223 179.358 93.715C180.65 93.6362 181.802 94.2154 182.246 95.4337C182.544 96.2496 182.514 96.8888 182.168 97.6927C181.787 98.577 181.401 99.5817 180.842 100.368C180.225 101.235 179.435 101.992 178.493 102.497C177.396 103.086 175.992 103.57 174.732 103.308C173.635 103.079 173.094 102.232 172.541 101.367L172.523 101.338M177.539 89.9695C177.902 89.5832 178.683 90.1796 178.193 90.6436C177.807 91.0082 177.423 90.7028 177.159 90.3954C176.793 89.9686 177.312 89.3293 177.707 89.0983C179.085 88.2926 180.441 89.4713 179.57 90.8858C179.106 91.6406 178.577 91.9792 177.685 92.0421C176.895 92.0979 176.2 91.9131 175.826 91.1662C175.378 90.2717 175.987 89.3333 176.482 88.5824C177.119 87.6162 178.178 86.8892 179.362 86.887C181.411 86.8831 181.92 89.1252 181.361 90.7195C180.792 92.3444 179.087 93.155 177.52 93.5043C176.496 93.7323 175.717 93.6378 174.723 93.3604C174.305 93.2435 173.708 93.1657 173.572 92.6775C173.329 91.8086 173.543 90.9495 173.865 90.1465M169.808 81.7479C169.753 81.6521 169.732 81.55 169.731 81.4401C169.72 80.5142 169.865 79.3383 170.419 78.5783C171.221 77.4773 172.333 76.9774 173.643 76.678C174.42 76.5003 175.356 76.2728 175.937 75.6665M175.937 75.6665C176.027 75.5719 176.109 75.4681 176.181 75.3538C176.237 75.2648 176.324 74.9508 176.179 75.1953C176.09 75.3468 176.008 75.5043 175.937 75.6665ZM175.937 75.6665C175.822 75.9282 175.735 76.2021 175.688 76.4822C175.541 77.3563 175.608 78.5058 175.251 79.3143C174.67 80.63 173.119 81.2974 172.057 82.1623M173.169 81.8308C173.162 81.6655 173.127 81.5427 173.278 81.4377C174.007 80.9323 174.912 80.3642 175.833 80.4899C177.203 80.6771 178.713 82.1544 180.133 82.1348M180.133 82.1348C180.296 82.1325 180.458 82.1105 180.619 82.0644C181.033 81.9456 180.868 81.1685 180.34 81.8565C180.269 81.9486 180.201 82.0416 180.133 82.1348ZM180.133 82.1348C179.762 82.6458 179.421 83.1619 178.918 83.5721C178.071 84.2628 177.026 84.5599 175.97 84.7361M173.299 78.3279C173.032 78.2887 172.748 78.5491 172.578 78.7132C171.837 79.4269 171.521 80.2869 171.315 81.268M176.517 82.0227C175.944 82.9793 174.284 82.8385 173.308 83.026M172.974 104.438C172.947 104.34 173.211 104.162 173.111 104.168C172.373 104.215 172.405 104.73 172.155 105.352C171.643 106.624 171.27 107.453 171.954 108.714C172.538 109.791 172.973 110.893 172.939 112.132C172.93 112.462 172.98 113.577 172.649 113.928M172.649 113.928C172.602 113.978 172.547 114.012 172.483 114.026C172.239 114.081 172.367 114.029 172.649 113.928ZM172.649 113.928C173.096 113.767 173.93 113.485 174.287 113.313C175.442 112.755 176.401 112.507 176.865 111.198C177.172 110.331 177.367 109.468 177.209 108.548C177.049 107.613 176.435 106.83 176.172 105.924M174.551 106.898C174.529 106.893 174.561 106.932 174.57 106.948C174.622 107.04 174.684 107.168 174.688 107.274C174.727 108.39 174.269 109.658 174.058 110.731M177.418 103.507C178.233 102.837 179.412 102.425 180.433 103.015C181.731 103.766 182.617 105.066 184.089 105.547C184.105 105.552 184.122 105.556 184.139 105.559M184.139 105.559C184.392 105.602 184.766 105.407 184.495 105.333C184.406 105.308 184.278 105.407 184.139 105.559ZM184.139 105.559C183.84 105.888 183.494 106.468 183.395 106.621C182.971 107.272 181.709 107.859 180.951 107.979C179.985 108.132 178.716 108.139 177.781 107.839C175.939 107.249 174.991 106.051 174.275 104.285M175.537 104.53C175.703 104.502 175.916 104.643 176.046 104.729C177.343 105.588 178.796 105.996 180.323 106.076M180.502 91.7315C180.641 91.0198 182.083 90.4447 182.595 90.3732C183.468 90.2513 184.268 90.7265 185.061 91.0102C185.19 91.0564 185.358 91.1358 185.516 91.1622M185.516 91.1622C185.648 91.1842 185.774 91.1696 185.867 91.0691C186.007 90.918 185.767 91.0144 185.516 91.1622ZM185.516 91.1622C185.336 91.2686 185.15 91.4016 185.095 91.4883C184.75 92.0338 184.441 92.5843 184.066 93.1121C183.335 94.1412 182.354 94.2873 181.152 94.4644M183.174 91.726C182.346 92.613 181.36 92.7692 180.198 93.0435M153.718 87.1694C153.718 86.0887 151.801 85.7462 151.003 85.7409C149.7 85.7324 148.262 86.1878 147.135 86.8288C146.807 87.0156 146.462 87.4291 146.108 87.7585M146.108 87.7585C145.867 87.982 145.623 88.1669 145.376 88.2161C145.161 88.2591 145.026 87.9706 145.232 87.8898C145.514 87.7799 145.812 87.7397 146.108 87.7585ZM146.108 87.7585C146.618 87.791 147.122 87.9986 147.522 88.3253C148.38 89.0258 149.046 89.5413 150.175 89.7958C150.686 89.9112 151.198 90.0802 151.688 89.8061C152.419 89.3975 153.005 88.6906 153.615 88.1275M153.539 88.7537C153.536 88.7279 153.344 88.7411 153.326 88.7403C152.39 88.7008 151.379 89.1046 150.699 89.7375C150.094 90.3 149.917 90.9847 149.672 91.7403C149.594 91.9808 149.495 92.5064 149.333 92.9461M149.333 92.9461C149.212 93.2745 149.055 93.555 148.845 93.6333C148.689 93.6913 148.223 93.7276 148.347 93.6157C148.641 93.3483 148.975 93.1224 149.333 92.9461ZM149.333 92.9461C149.619 92.8053 149.92 92.6961 150.229 92.6225C150.921 92.4577 151.595 92.8436 152.282 92.9144C153.92 93.0833 154.41 91.9401 154.975 90.5393M155.87 87.5233C155.738 87.8108 155.595 88.0989 155.431 88.3689C154.456 89.9774 152.894 90.4383 151.35 91.3232M152.385 86.8319C152.15 86.9446 152.034 87.1695 151.768 87.2538C150.657 87.6054 149.563 87.1475 148.531 86.7666M157.669 107.731C157.669 107.616 157.684 107.978 157.759 108.064C158.02 108.361 158.611 108.313 158.95 108.35C160.281 108.495 162.3 108.662 163.061 107.198C163.128 107.069 163.159 106.964 163.161 106.88M163.161 106.88C163.173 106.316 161.878 106.669 161.332 106.766M163.161 106.88C163.155 106.881 163.15 106.883 163.144 106.885C162.6 107.045 161.948 106.822 161.404 106.77C161.381 106.768 161.357 106.767 161.332 106.766M163.161 106.88C163.985 106.62 164.162 105.268 163.397 104.862M161.332 106.766C161.262 106.778 161.205 106.786 161.164 106.788C160.724 106.804 161.076 106.756 161.332 106.766ZM158.78 108.466C158.706 108.196 158.456 108.975 158.443 108.996C157.156 111.236 155.702 113.362 154.012 115.316C153.385 116.041 152.717 116.716 152.168 117.503M157.848 108.722C157.748 108.722 157.731 108.76 157.671 108.854C156.789 110.221 156.11 111.716 155.225 113.085C154.703 113.894 154.067 114.622 153.49 115.391M159.403 108.521C159.296 108.038 159.184 109.485 159.074 109.967C158.489 112.54 157.685 114.962 156.739 117.419C156.335 118.467 156.047 119.435 155.87 120.541M158.487 109.114C158.443 109.016 158.601 109.308 158.599 109.415C158.586 109.999 158.362 110.656 158.237 111.21C157.902 112.705 157.599 114.215 157.197 115.695C156.634 117.764 155.753 119.743 155.371 121.858M160.623 109.011C160.581 109.022 160.575 109.093 160.571 109.127C160.462 109.941 160.262 110.743 160.106 111.549C159.456 114.916 158.818 118.469 159.111 121.913M160.812 109.833C160.798 109.817 160.775 109.781 160.769 109.823C160.692 110.417 160.658 110.993 160.549 111.591C160.002 114.596 159.06 117.696 159.245 120.779C159.318 122.006 159.545 123.206 159.766 124.412M161.723 109.212C161.694 109.843 161.693 110.434 161.729 111.084C161.84 113.115 161.941 115.093 162.489 117.063C162.945 118.698 163.857 120.121 164.765 121.536L164.79 121.575M161.566 109.375C161.539 109.297 161.323 110.873 161.32 110.898C161.047 113.053 160.565 115.251 161.1 117.399C161.489 118.963 162.202 120.337 163.018 121.712M162.98 109.065C163.349 109.77 163.836 110.446 164.254 111.116C166.438 114.616 168.379 118.253 170.606 121.728M163.452 109.185C162.959 109.276 163.724 111.911 163.724 111.915C164.524 115.798 165.802 119.354 167.408 122.975M163.853 108.875C163.93 108.955 163.979 109.047 164.023 109.149C164.575 110.443 164.607 112.041 164.905 113.408C165.535 116.307 166.965 118.937 168.329 121.543M161.945 84.0827C161.546 83.7624 160.824 85.4907 160.822 85.499C160.627 86.4412 161.358 86.9144 162.005 87.4459C163.136 88.375 164.519 86.8806 165.349 86.2004M163.761 84.3984C163.634 84.3863 163.555 84.33 163.432 84.4166C163.004 84.7166 162.655 85.4704 162.545 85.963C162.384 86.6815 163.415 86.5399 163.804 86.5488M164.189 84.8557C164.089 84.8557 164.077 85.0135 164.059 85.0892C163.865 85.891 165.443 85.179 165.782 84.9918M153.653 81.0082C153.65 81.0077 153.678 80.8617 153.678 80.8443C153.669 80.1788 152.823 79.7568 152.3 79.5284C151.458 79.1602 150.553 79.0321 149.639 79.0903C148.979 79.1322 148.37 79.385 147.705 79.3684C147.565 79.3649 147.301 79.3502 147.091 79.324M147.091 79.324C146.858 79.2948 146.691 79.2514 146.835 79.1933C146.911 79.1628 147.004 79.2304 147.091 79.324ZM147.091 79.324C147.198 79.4385 147.296 79.5919 147.344 79.6528C147.803 80.235 148.16 80.9336 148.523 81.5812C148.736 81.9613 148.921 82.3866 149.193 82.7292C149.784 83.4757 150.483 83.4231 151.36 83.4287M148.16 80.09C148.484 79.9865 148.839 80.0847 149.153 80.1589C150.301 80.4303 151.059 80.9251 151.656 81.9448M158.443 77.7062C158.892 77.7062 159.533 77.7157 159.494 78.3767C159.44 79.2968 157.989 79.0341 157.53 78.702C156.522 77.9721 158.293 76.7478 158.97 76.6961C159.926 76.6233 160.933 76.9593 161.091 77.998C161.53 80.8819 155.593 80.9617 155.348 78.1147C155.213 76.5316 157.909 75.8003 159.06 75.7154C160.767 75.5897 163.091 76.7077 162.015 78.6759M161.664 75.9652C161.447 75.9573 161.452 75.6567 161.499 75.5028C161.853 74.3321 162.499 73.9043 163.484 73.3422C164.034 73.0281 164.658 72.7142 165.112 72.2605C165.274 72.0986 165.324 73.2999 165.317 73.4928C165.282 74.3663 165.449 75.2236 165.254 76.0909C164.973 77.3352 163.525 77.7986 162.487 78.2204M163.979 74.1764C163.979 74.1293 164.077 74.0526 164.083 74.0952C164.112 74.3092 164.06 74.5296 164.017 74.7372C163.791 75.8276 163.459 76.4247 162.472 76.9092M165.628 76.259C165.34 75.8363 166.407 75.2776 166.658 75.146C167.195 74.8646 167.894 75.1597 168.425 75.303C168.581 75.3451 169.433 75.685 169.825 75.6889M169.825 75.6889C169.909 75.6898 169.972 75.6751 170.002 75.6385C170.225 75.3672 169.961 75.3524 169.825 75.6889ZM169.825 75.6889C169.819 75.7036 169.813 75.719 169.807 75.735C169.654 76.1872 169.601 76.7301 169.306 77.1181C168.772 77.8179 167.977 78.0602 167.164 78.2461M167.866 76.3104C167.834 76.2638 167.674 76.3609 167.639 76.3769C166.741 76.7837 165.741 76.927 164.787 77.1295M152.614 78.9403C152.132 78.8676 152.23 77.2887 152.24 77.094C152.287 76.1898 152.814 75.5599 153.339 74.8734C153.765 74.3162 154.155 73.7271 154.55 73.1471C154.603 73.0697 154.639 72.883 154.665 73.0484C154.713 73.3486 154.688 73.634 154.839 73.9115C155.219 74.6139 155.526 75.2963 155.784 76.057C155.908 76.4202 156.079 76.8218 156.093 77.2099C156.118 77.9357 155.666 78.6119 155.316 79.2121M154.629 74.9551C154.615 74.7928 154.613 75.1353 154.612 75.1676C154.574 76.5649 154.339 78.1501 153.817 79.4472M162.779 109.488C162.78 109.467 162.807 109.371 162.775 109.439C162.589 109.827 162.719 110.364 162.753 110.759C162.903 112.465 163.348 114.092 163.769 115.746C164.257 117.662 164.696 119.612 165.371 121.472M159.668 109.691C159.41 109.537 154.957 116.986 154.329 118.086M160.746 110.108C160.395 109.962 159.435 113.431 159.38 113.59C158.724 115.515 157.959 117.427 157.437 119.394C157.102 120.658 157.015 121.776 157.083 123.066M158.847 109.942C158.839 109.893 158.842 109.866 158.809 109.917C158.588 110.258 158.416 110.641 158.223 110.997C156.835 113.565 155.462 116.111 154.201 118.744C153.772 119.64 153.329 120.526 152.815 121.376C152.695 121.575 152.534 121.836 152.387 122.035C152.268 122.195 152.34 122.107 152.311 122.07M165.633 108.218C165.593 107.583 168.398 108.52 168.733 108.751C169.511 109.287 170.053 110.16 170.384 111.036C170.535 111.436 170.722 111.83 171.033 112.087M171.033 112.087C171.171 112.201 171.334 112.288 171.53 112.337C171.731 112.388 171.353 112.186 171.033 112.087ZM171.033 112.087C170.924 112.053 170.822 112.031 170.751 112.035C170.08 112.07 169.62 112.981 168.91 113.002C166.472 113.075 163.943 111.091 164.798 108.434M164.755 107.959C164.515 107.585 164.921 108.312 164.976 108.397C165.609 109.375 166.717 109.914 167.455 110.797C168.05 111.509 168.82 111.893 169.691 111.443" stroke="black" stroke-width="1.5" stroke-linecap="round"/>
<path d="M322.309 151.6C322.842 151.6 323.109 152 323.109 152.8C323.109 153.6 322.842 154 322.309 154H298.909C295.442 154 289.109 148.267 279.909 136.8C270.842 125.333 259.909 109.267 247.109 88.6C242.975 89.8 238.575 90.4 233.909 90.4C231.909 90.4 229.575 90.2667 226.909 90L226.509 137.8C226.642 141.933 227.109 144.933 227.909 146.8C228.709 148.667 230.175 149.933 232.309 150.6C234.575 151.267 238.175 151.6 243.109 151.6C243.642 151.6 243.909 152 243.909 152.8C243.909 153.6 243.709 154 243.309 154C239.175 154 235.909 153.933 233.509 153.8L219.909 153.6L206.109 153.8C203.709 153.933 200.442 154 196.309 154C195.775 154 195.509 153.6 195.509 152.8C195.509 152 195.775 151.6 196.309 151.6C201.375 151.6 205.109 151.267 207.509 150.6C209.909 149.8 211.575 148.467 212.509 146.6C213.442 144.733 213.975 141.8 214.109 137.8V45.2C213.975 41.2 213.509 38.2667 212.709 36.4C211.909 34.5333 210.309 33.2666 207.909 32.6C205.642 31.8 201.975 31.4 196.909 31.4C196.375 31.4 196.109 31 196.109 30.2C196.109 29.4 196.375 29 196.909 29L206.709 29.2C212.309 29.4667 216.775 29.6 220.109 29.6C222.909 29.6 225.375 29.5333 227.509 29.4C229.775 29.2667 231.575 29.1333 232.909 29C236.775 28.6 240.175 28.4 243.109 28.4C254.175 28.4 262.642 30.6 268.509 35C274.375 39.4 277.309 45.5333 277.309 53.4C277.309 59.6667 275.442 65.6 271.709 71.2C268.109 76.6667 263.175 81.1333 256.909 84.6C268.242 101.667 277.642 115 285.109 124.6C292.709 134.2 299.442 141.133 305.309 145.4C311.175 149.533 316.842 151.6 322.309 151.6ZM226.509 85.2C230.109 85.6 233.709 85.8 237.309 85.8C246.642 85.8 253.375 83.8 257.509 79.8C261.642 75.8 263.709 69.2667 263.709 60.2C263.709 50.0667 261.509 42.7333 257.109 38.2C252.709 33.6666 246.775 31.4 239.309 31.4C235.575 31.4 232.909 31.6667 231.309 32.2C229.709 32.6 228.509 33.8 227.709 35.8C227.042 37.6667 226.642 40.9333 226.509 45.6V85.2ZM351.521 155.8C347.788 155.8 344.921 154.467 342.921 151.8C341.055 149.133 340.188 145.2 340.321 140L340.921 94.6C341.055 86.7333 339.121 82.8 335.121 82.8C331.921 82.8 327.455 86 321.721 92.4C321.455 92.6667 321.255 92.8 321.121 92.8C320.588 92.8 320.121 92.6 319.721 92.2C319.321 91.6667 319.255 91.2 319.521 90.8C323.521 85.4667 327.255 81.5333 330.721 79C334.188 76.3333 337.788 75 341.521 75C345.255 75 347.988 76.2667 349.721 78.8C351.455 81.3333 352.321 85.2 352.321 90.4L351.721 136.2C351.721 143.933 353.588 147.8 357.321 147.8C360.655 147.8 364.921 144.733 370.121 138.6C370.255 138.467 370.455 138.4 370.721 138.4C371.255 138.4 371.721 138.667 372.121 139.2C372.655 139.6 372.788 139.933 372.521 140.2C368.388 145.533 364.721 149.467 361.521 152C358.321 154.533 354.988 155.8 351.521 155.8ZM344.521 51.6C341.721 51.6 339.521 50.8667 337.921 49.4C336.321 47.8 335.521 45.6 335.521 42.8C335.521 40.2666 336.321 38.2666 337.921 36.8C339.521 35.3333 341.721 34.6 344.521 34.6C347.055 34.6 349.055 35.3333 350.521 36.8C352.121 38.2666 352.921 40.2666 352.921 42.8C352.921 45.6 352.188 47.8 350.721 49.4C349.255 50.8667 347.188 51.6 344.521 51.6ZM432.274 139.8C432.674 139.8 433.074 140.067 433.474 140.6C433.874 141 433.941 141.333 433.674 141.6C428.074 146.8 423.008 150.6 418.474 153C414.074 155.267 409.608 156.4 405.074 156.4C400.008 156.4 395.808 155.067 392.474 152.4C389.141 149.733 387.541 145.4 387.674 139.4L387.874 92.8C387.741 89.3333 387.474 86.8667 387.074 85.4C386.674 83.9333 385.808 83 384.474 82.6C383.274 82.0667 381.141 81.8 378.074 81.8C377.541 81.8 377.208 81.4 377.074 80.6C377.074 79.8 377.341 79.4 377.874 79.4C382.941 79.4 387.008 78 390.074 75.2C393.274 72.2667 395.141 68.5333 395.674 64C395.674 63.6 396.208 63.4 397.274 63.4C398.608 63.4 399.274 63.6 399.274 64V78.8C404.208 78.6667 413.474 78.2 427.074 77.4C427.608 77.4 428.008 77.6 428.274 78C428.674 78.2667 428.874 78.6667 428.874 79.2C428.741 80.5333 428.008 82 426.674 83.6C425.474 85.2 424.074 85.8667 422.474 85.6C413.274 84.4 405.541 83.7333 399.274 83.6L399.074 133.2C399.074 138.667 400.008 142.667 401.874 145.2C403.874 147.6 407.341 148.8 412.274 148.8C416.008 148.8 419.408 148.067 422.474 146.6C425.541 145 428.741 142.733 432.074 139.8H432.274ZM506.37 135C506.503 134.867 506.77 134.8 507.17 134.8C507.57 134.8 507.97 134.933 508.37 135.2C508.903 135.333 509.103 135.533 508.97 135.8C508.036 141.667 507.103 145.933 506.17 148.6C505.236 151.133 504.103 152.867 502.77 153.8C501.436 154.6 499.37 155 496.57 155C491.77 155 484.436 154.133 474.57 152.4C473.503 152.267 470.436 151.8 465.37 151C460.303 150.2 455.836 149.733 451.97 149.6C449.703 149.6 447.77 150 446.17 150.8C444.57 151.6 442.836 153.133 440.97 155.4L440.77 155.6C440.37 155.6 439.903 155.333 439.37 154.8C438.836 154.267 438.703 153.867 438.97 153.6L488.77 89.6C487.57 90.2667 485.57 90.6 482.77 90.6C479.703 90.6 475.97 90.2 471.57 89.4C467.17 88.6 464.636 88.1333 463.97 88C457.17 86.5333 452.436 85.8 449.77 85.8C447.236 85.8 445.303 86.4667 443.97 87.8C442.77 89.1333 441.836 91.4667 441.17 94.8C441.17 95.3333 440.77 95.6 439.97 95.6C439.036 95.6 438.636 95.2 438.77 94.4C439.836 88.1333 440.836 83.7333 441.77 81.2C442.703 78.6667 443.97 77 445.57 76.2C447.17 75.4 449.77 75.0667 453.37 75.2C455.77 75.3333 458.77 75.7333 462.37 76.4C466.103 76.9333 468.703 77.3333 470.17 77.6C478.436 79.2 485.303 80.2 490.77 80.6C493.17 80.6 495.17 80.2667 496.77 79.6C498.37 78.8 500.036 77.2667 501.77 75L502.17 74.8C502.57 74.8 502.97 75.0667 503.37 75.6C503.903 76 504.103 76.3333 503.97 76.6L454.37 140.4C455.57 139.867 457.503 139.6 460.17 139.6C462.836 139.6 466.17 139.867 470.17 140.4C474.17 140.933 478.103 141.533 481.97 142.2C490.77 143.533 496.17 144.2 498.17 144.2C500.57 144.2 502.37 143.533 503.57 142.2C504.77 140.867 505.703 138.467 506.37 135ZM582.207 75.2C584.474 75.2 585.941 75.3333 586.607 75.6C587.407 75.7333 587.874 76 588.007 76.4L587.607 91.6L587.207 168C586.941 180.533 583.541 190.667 577.007 198.4C570.607 206.267 561.807 210.2 550.607 210.2C543.54 210.2 537.607 208.733 532.807 205.8C528.14 203 525.807 199.533 525.807 195.4C525.807 193 526.34 191.267 527.407 190.2C528.474 189.133 529.807 188.6 531.407 188.6C533.14 188.6 534.54 189.133 535.607 190.2C536.674 191.267 537.94 192.867 539.407 195C541.807 198.467 544.274 201.133 546.807 203C549.34 205 552.94 206 557.607 206C563.341 206 567.874 203.6 571.207 198.8C574.54 194 576.141 185.333 576.007 172.8V112.8C573.474 126.533 569.274 137.267 563.407 145C557.674 152.733 550.674 156.6 542.407 156.6C530.14 156.6 524.407 147.8 525.207 130.2L526.207 94.6C526.34 86.8667 524.407 83 520.407 83C517.34 83 513.14 86.1333 507.807 92.4C507.54 92.6667 507.274 92.8 507.007 92.8C506.607 92.8 506.274 92.6 506.007 92.2C505.607 91.6667 505.474 91.2 505.607 90.8C509.607 85.4667 513.274 81.5333 516.607 79C520.074 76.3333 523.607 75 527.207 75C534.274 75 537.74 80.3333 537.607 91L536.407 126.4C536.007 141.333 540.007 148.8 548.407 148.8C553.474 148.8 558.074 146.067 562.207 140.6C566.34 135.133 569.607 127.333 572.007 117.2C574.54 107.067 575.94 95.2 576.207 81.6V78C576.207 77.2 576.741 76.5333 577.807 76C578.874 75.4667 580.341 75.2 582.207 75.2Z" fill="black"/>
<path d="M217.646 167.801C217.774 167.801 217.87 167.854 217.934 167.961C218.019 168.046 218.062 168.131 218.062 168.217V168.345C216.675 168.345 215.48 168.75 214.478 169.561C213.07 170.713 212.366 172.099 212.366 173.721C212.366 174.425 212.515 175.129 212.814 175.833C213.283 176.985 214.147 177.87 215.406 178.489C215.918 176.59 216.974 174.969 218.574 173.625C220.195 172.259 222.179 171.577 224.526 171.577C226.296 171.577 227.427 172.174 227.918 173.369C228.067 173.731 228.142 174.105 228.142 174.489C228.142 175.278 227.822 176.11 227.182 176.985C225.603 179.075 223.075 180.121 219.598 180.121C218.531 180.121 217.603 180.025 216.814 179.833C216.75 180.238 216.718 180.665 216.718 181.113C216.718 181.561 216.792 182.009 216.942 182.457C218.243 181.987 219.619 181.753 221.07 181.753C222.542 181.753 223.438 182.126 223.758 182.873C223.822 183.043 223.854 183.203 223.854 183.353C223.854 183.801 223.512 184.249 222.83 184.697C222.147 185.145 221.091 185.369 219.662 185.369C218.232 185.369 217.08 184.878 216.206 183.897C214.307 185.113 212.91 186.905 212.014 189.273C211.416 190.851 211.118 192.387 211.118 193.881C211.118 194.627 211.192 195.353 211.342 196.057C211.79 198.233 212.835 199.694 214.478 200.441C214.478 200.377 214.478 200.313 214.478 200.249C214.478 198.265 214.798 196.323 215.438 194.425C216.099 192.526 217.134 190.894 218.542 189.529C219.95 188.142 221.571 187.449 223.406 187.449C225.24 187.449 226.424 188.281 226.958 189.945C227.15 190.542 227.246 191.161 227.246 191.801C227.246 192.974 226.926 194.254 226.286 195.641C225.176 198.009 223.502 199.726 221.262 200.793C219.896 201.433 218.424 201.753 216.846 201.753C216.59 201.753 216.248 201.731 215.822 201.689C215.886 203.438 216.28 204.857 217.006 205.945C217.731 207.033 218.776 207.577 220.142 207.577C220.056 207.939 219.79 208.121 219.342 208.121C217.912 208.121 216.782 207.502 215.95 206.265C215.139 205.027 214.67 203.427 214.542 201.465C213.006 201.081 211.768 200.323 210.83 199.193C209.678 197.827 209.102 196.089 209.102 193.977C209.102 192.889 209.262 191.683 209.582 190.361C209.902 189.017 210.606 187.651 211.694 186.265C212.782 184.857 214.094 183.769 215.63 183.001C215.288 182.275 215.118 181.593 215.118 180.953C215.118 180.291 215.15 179.737 215.214 179.289C214.254 178.841 213.475 178.243 212.878 177.497C212.067 176.451 211.662 175.289 211.662 174.009C211.662 172.579 212.067 171.289 212.878 170.137C213.39 169.454 214.062 168.899 214.894 168.473C215.726 168.025 216.643 167.801 217.646 167.801ZM223.662 188.217C222.232 188.217 220.899 188.889 219.662 190.233C218.446 191.555 217.507 193.177 216.846 195.097C216.206 197.017 215.864 198.926 215.822 200.825C216.12 200.889 216.44 200.921 216.782 200.921C219.896 200.921 222.382 199.715 224.238 197.305C225.603 195.534 226.286 193.731 226.286 191.897C226.286 190.062 225.752 188.91 224.686 188.441C224.387 188.291 224.046 188.217 223.662 188.217ZM219.566 179.321C222.04 179.321 223.982 178.553 225.39 177.017C226.222 176.121 226.638 175.246 226.638 174.393C226.638 174.201 226.627 174.019 226.606 173.849C226.35 172.846 225.582 172.334 224.302 172.313C222.552 172.313 220.995 172.995 219.63 174.361C218.286 175.726 217.4 177.294 216.974 179.065C217.763 179.235 218.627 179.321 219.566 179.321ZM221.07 182.457C219.747 182.457 218.499 182.723 217.326 183.257C217.902 184.153 218.862 184.601 220.206 184.601C221.571 184.601 222.446 184.302 222.83 183.705C222.915 183.555 222.958 183.427 222.958 183.321C222.958 183.043 222.766 182.83 222.382 182.681C222.019 182.531 221.582 182.457 221.07 182.457ZM238.304 177.785C239.072 175.779 239.456 174.414 239.456 173.689C239.456 172.963 239.275 172.579 238.912 172.537C237.909 172.537 236.864 174.147 235.776 177.369C234.709 180.569 233.867 183.897 233.248 187.353C232.651 190.787 232.352 193.219 232.352 194.649C232.352 197.059 232.949 198.265 234.144 198.265C234.144 198.414 234.048 198.563 233.856 198.713C233.664 198.862 233.44 198.937 233.184 198.937C231.435 198.937 230.56 197.369 230.56 194.233C230.56 193.081 230.773 191.321 231.2 188.953C231.627 186.563 232.181 184.067 232.864 181.465C233.547 178.862 234.432 176.601 235.52 174.681C236.608 172.739 237.717 171.769 238.848 171.769C239.744 171.769 240.192 172.334 240.192 173.465C240.192 174.318 239.925 175.513 239.392 177.049C238.368 180.035 236.896 183.022 234.976 186.009C234.464 186.798 234.005 187.438 233.6 187.929C233.493 188.057 233.44 188.014 233.44 187.801C233.419 187.395 233.515 187.043 233.728 186.745C235.477 184.121 237.003 181.134 238.304 177.785ZM239.674 193.177C239.674 195.758 240.591 197.049 242.426 197.049C243.109 197.049 243.823 196.75 244.57 196.153C245.338 195.534 246.031 194.798 246.65 193.945C248.015 191.982 248.975 190.382 249.53 189.145L249.946 188.249H250.81C250.447 189.102 249.914 190.158 249.21 191.417C248.506 192.654 247.834 193.699 247.194 194.553C246.554 195.406 245.797 196.185 244.922 196.889C244.047 197.571 243.215 197.913 242.426 197.913C239.269 197.913 237.69 196.142 237.69 192.601C237.69 190.958 238.17 189.315 239.13 187.673C240.453 185.39 242.085 184.249 244.026 184.249C245.391 184.249 246.074 184.995 246.074 186.489C246.074 187.598 245.647 188.75 244.794 189.945C243.599 191.566 242.202 192.387 240.602 192.409C240.367 192.409 240.218 192.302 240.154 192.089L240.122 191.961C241.231 191.961 242.287 191.235 243.29 189.785C244.314 188.313 244.826 187.086 244.826 186.105C244.826 185.443 244.57 185.113 244.058 185.113C242.927 185.113 241.871 186.105 240.89 188.089C240.079 189.774 239.674 191.47 239.674 193.177ZM258.505 186.169C259.038 186.169 259.305 186.617 259.305 187.513C259.305 188.153 258.953 190.009 258.249 193.081C257.545 196.131 256.915 198.659 256.361 200.665C255.806 202.67 255.283 204.153 254.793 205.113C254.302 206.094 253.705 207.075 253.001 208.057C252.318 209.038 251.561 209.71 250.729 210.073C249.897 210.435 248.937 210.617 247.849 210.617C245.822 210.617 244.809 209.582 244.809 207.513C244.809 206.297 245.267 204.985 246.185 203.577C247.507 201.507 249.278 200.142 251.497 199.481C252.286 199.246 253.107 199.129 253.961 199.129C254.11 199.129 254.185 199.278 254.185 199.577C254.185 199.875 254.11 200.025 253.961 200.025C251.443 200.025 249.331 201.017 247.625 203.001C246.366 204.494 245.737 205.934 245.737 207.321C245.737 208.707 246.27 209.507 247.337 209.721L247.849 209.753C249.598 209.753 250.985 209.027 252.009 207.577C253.054 206.105 253.875 204.249 254.473 202.009C255.07 199.747 255.838 196.206 256.777 191.385H256.521C254.217 195.715 252.318 197.881 250.825 197.881C249.139 197.881 248.297 196.611 248.297 194.073C248.297 192.601 248.681 190.99 249.449 189.241C250.515 186.873 251.87 185.326 253.513 184.601C254.089 184.366 254.665 184.249 255.241 184.249C255.838 184.249 256.307 184.419 256.649 184.761C256.99 185.102 257.161 185.486 257.161 185.913C257.161 186.105 257.054 186.201 256.841 186.201C256.649 186.179 256.553 186.073 256.553 185.881C256.553 185.689 256.446 185.518 256.233 185.369C256.041 185.198 255.753 185.113 255.369 185.113C254.025 185.113 252.809 186.318 251.721 188.729C250.697 190.969 250.185 193.091 250.185 195.097C250.185 196.334 250.451 196.953 250.985 196.953C251.689 196.953 252.606 196.121 253.737 194.457C255.443 191.939 256.777 189.475 257.737 187.065C257.993 186.467 258.249 186.169 258.505 186.169ZM263.247 197.881C261.561 197.881 260.719 196.611 260.719 194.073C260.719 192.601 261.103 190.99 261.871 189.241C262.937 186.873 264.292 185.326 265.935 184.601C266.511 184.366 267.087 184.249 267.663 184.249C268.26 184.249 268.729 184.419 269.071 184.761C269.412 185.102 269.583 185.486 269.583 185.913C269.583 186.105 269.476 186.201 269.263 186.201C269.071 186.179 268.975 186.073 268.975 185.881C268.975 185.689 268.868 185.518 268.655 185.369C268.463 185.198 268.175 185.113 267.791 185.113C266.447 185.113 265.231 186.318 264.143 188.729C263.119 190.969 262.607 193.091 262.607 195.097C262.607 196.334 262.873 196.953 263.407 196.953C263.961 196.953 264.623 196.494 265.391 195.577C266.18 194.638 266.905 193.55 267.567 192.313C268.996 189.71 269.839 188.035 270.095 187.289C270.351 186.542 270.628 186.169 270.927 186.169C271.46 186.169 271.727 186.617 271.727 187.513C271.727 187.79 271.695 188.11 271.631 188.473C270.927 191.886 270.543 193.859 270.479 194.393C270.436 194.926 270.415 195.31 270.415 195.545C270.415 196.569 270.66 197.081 271.151 197.081C271.705 197.081 272.484 196.345 273.487 194.873C274.489 193.401 275.353 191.929 276.079 190.457L277.167 188.249H278.031C277.903 188.505 277.732 188.857 277.519 189.305C277.327 189.731 276.932 190.51 276.335 191.641C275.737 192.75 275.161 193.731 274.607 194.585C274.073 195.438 273.465 196.217 272.783 196.921C272.121 197.603 271.545 197.945 271.055 197.945C269.476 197.945 268.687 196.793 268.687 194.489C268.687 193.721 268.772 192.825 268.943 191.801H268.719C266.543 195.854 264.719 197.881 263.247 197.881ZM276.636 197.849C276.039 197.849 275.74 197.39 275.74 196.473C275.74 195.982 276.338 192.409 277.532 185.753C277.596 185.305 277.788 185.081 278.108 185.081C278.492 185.081 278.78 185.358 278.972 185.913C279.079 186.211 279.132 186.542 279.132 186.905C279.132 187.246 279.09 187.619 279.004 188.025L278.492 190.585H278.684C280.604 186.275 282.439 184.121 284.188 184.121C284.871 184.121 285.394 184.334 285.756 184.761C286.119 185.166 286.3 185.731 286.3 186.457C286.3 187.182 286.012 188.75 285.436 191.161C284.86 193.571 284.572 195.246 284.572 196.185C284.572 197.571 284.828 198.265 285.34 198.265C285.34 198.414 285.244 198.563 285.052 198.713C284.86 198.862 284.636 198.937 284.38 198.937C283.143 198.937 282.524 197.966 282.524 196.025C282.524 194.83 282.844 193.027 283.484 190.617C284.146 188.185 284.476 186.638 284.476 185.977C284.476 185.294 284.21 184.953 283.676 184.953C282.908 184.953 281.98 185.955 280.892 187.961C279.826 189.966 278.962 191.886 278.3 193.721C277.66 195.534 277.287 196.675 277.18 197.145C277.095 197.614 276.914 197.849 276.636 197.849ZM290.892 193.305C290.892 195.801 291.756 197.049 293.484 197.049C294.167 197.049 294.881 196.75 295.628 196.153C296.396 195.534 297.089 194.798 297.708 193.945C299.073 191.982 300.033 190.382 300.588 189.145L301.004 188.249H301.868C301.505 189.102 300.972 190.158 300.268 191.417C299.564 192.654 298.892 193.699 298.252 194.553C297.612 195.406 296.855 196.185 295.98 196.889C295.105 197.571 294.273 197.913 293.484 197.913C291.265 197.913 289.857 196.899 289.26 194.873C289.068 194.233 288.972 193.433 288.972 192.473C288.972 191.491 289.271 190.297 289.868 188.889C290.743 186.798 291.937 185.39 293.452 184.665C294.049 184.387 294.636 184.249 295.212 184.249C295.809 184.249 296.279 184.409 296.62 184.729C297.025 185.113 297.228 185.561 297.228 186.073C297.228 186.563 297.175 187.022 297.068 187.449C296.961 187.875 296.737 188.259 296.396 188.601C296.076 188.921 295.713 189.081 295.308 189.081C295.137 189.081 295.009 188.963 294.924 188.729C295.095 188.729 295.319 188.43 295.596 187.833C295.895 187.214 296.044 186.606 296.044 186.009C296.044 185.411 295.788 185.113 295.276 185.113C294.167 185.113 293.153 186.041 292.236 187.897C291.34 189.753 290.892 191.555 290.892 193.305ZM301.783 193.177C301.783 195.758 302.701 197.049 304.535 197.049C305.218 197.049 305.933 196.75 306.679 196.153C307.447 195.534 308.141 194.798 308.759 193.945C310.125 191.982 311.085 190.382 311.639 189.145L312.055 188.249H312.919C312.557 189.102 312.023 190.158 311.319 191.417C310.615 192.654 309.943 193.699 309.303 194.553C308.663 195.406 307.906 196.185 307.031 196.889C306.157 197.571 305.325 197.913 304.535 197.913C301.378 197.913 299.799 196.142 299.799 192.601C299.799 190.958 300.279 189.315 301.239 187.673C302.562 185.39 304.194 184.249 306.135 184.249C307.501 184.249 308.183 184.995 308.183 186.489C308.183 187.598 307.757 188.75 306.903 189.945C305.709 191.566 304.311 192.387 302.711 192.409C302.477 192.409 302.327 192.302 302.263 192.089L302.231 191.961C303.341 191.961 304.397 191.235 305.399 189.785C306.423 188.313 306.935 187.086 306.935 186.105C306.935 185.443 306.679 185.113 306.167 185.113C305.037 185.113 303.981 186.105 302.999 188.089C302.189 189.774 301.783 191.47 301.783 193.177ZM337.231 175.449C337.53 175.449 337.722 175.577 337.807 175.833L337.871 175.993C336.954 175.993 336.271 176.547 335.823 177.657C335.397 178.745 335.066 180.355 334.831 182.489C336.645 182.83 338.031 183.897 338.991 185.689C340.357 184.814 341.413 183.641 342.159 182.169C342.927 180.697 343.311 179.246 343.311 177.817C343.311 176.387 342.767 175.15 341.679 174.105C340.613 173.059 339.077 172.537 337.071 172.537C333.21 172.537 330.223 173.913 328.111 176.665C326.639 178.606 325.903 180.675 325.903 182.873C325.903 185.07 326.469 186.553 327.599 187.321C328.069 187.619 328.581 187.769 329.135 187.769C328.922 188.259 328.591 188.505 328.143 188.505C326.543 188.505 325.423 187.662 324.783 185.977C324.463 185.166 324.303 184.249 324.303 183.225C324.303 182.179 324.538 181.017 325.007 179.737C325.989 176.942 327.759 174.83 330.319 173.401C332.282 172.291 334.533 171.737 337.071 171.737C338.885 171.737 340.421 172.025 341.679 172.601C342.938 173.177 343.845 173.913 344.399 174.809C344.997 175.811 345.295 176.889 345.295 178.041C345.295 179.171 345.071 180.259 344.623 181.305C344.197 182.35 343.525 183.374 342.607 184.377C341.711 185.358 340.655 186.147 339.439 186.745C339.973 188.131 340.453 190.713 340.879 194.489C341.029 195.705 341.231 196.889 341.487 198.041C342.042 200.473 343.226 201.689 345.039 201.689C344.997 202.073 344.719 202.265 344.207 202.265C341.605 202.265 340.026 201.027 339.471 198.553C339.194 197.379 339.013 196.195 338.927 195.001C338.863 193.806 338.799 192.451 338.735 190.937C338.671 189.401 338.522 188.163 338.287 187.225C337.114 187.651 335.866 187.865 334.543 187.865H334.255C333.658 192.494 332.645 195.662 331.215 197.369C330.639 198.073 329.882 198.659 328.943 199.129C328.026 199.598 327.002 199.833 325.871 199.833C324.762 199.833 323.823 199.641 323.055 199.257C322.309 198.873 321.765 198.382 321.423 197.785C320.954 196.91 320.719 196.11 320.719 195.385C320.719 194.659 320.826 193.987 321.039 193.369C321.253 192.729 321.562 192.11 321.967 191.513C322.373 190.894 322.906 190.393 323.567 190.009C324.229 189.625 324.943 189.433 325.711 189.433C326.138 189.433 326.437 189.582 326.607 189.881L326.671 190.041C324.815 190.041 323.397 190.83 322.415 192.409C321.861 193.305 321.583 194.222 321.583 195.161C321.583 195.587 321.637 196.025 321.743 196.473C322.213 198.137 323.386 198.969 325.263 198.969C326.159 198.969 326.959 198.745 327.663 198.297C328.389 197.849 328.975 197.294 329.423 196.633C329.893 195.971 330.319 195.097 330.703 194.009C331.279 192.323 331.791 190.158 332.239 187.513C331.429 187.235 330.853 186.841 330.511 186.329C330.17 185.795 329.999 185.39 329.999 185.113C329.999 184.835 329.999 184.643 329.999 184.537C330.106 183.982 330.426 183.491 330.959 183.065C331.514 182.617 332.229 182.382 333.103 182.361C333.381 180.91 333.669 179.726 333.967 178.809C334.266 177.87 334.693 177.081 335.247 176.441C335.802 175.779 336.463 175.449 337.231 175.449ZM334.511 187.033C335.706 187.033 336.869 186.777 337.999 186.265C337.359 184.579 336.282 183.566 334.767 183.225L334.383 187.033H334.511ZM332.975 183.097C332.207 183.161 331.663 183.395 331.343 183.801C331.023 184.185 330.863 184.505 330.863 184.761C330.863 185.635 331.365 186.275 332.367 186.681C332.623 185.059 332.826 183.865 332.975 183.097ZM347.33 193.177C347.33 195.758 348.248 197.049 350.082 197.049C350.765 197.049 351.48 196.75 352.226 196.153C352.994 195.534 353.688 194.798 354.306 193.945C355.672 191.982 356.632 190.382 357.186 189.145L357.602 188.249H358.466C358.104 189.102 357.57 190.158 356.866 191.417C356.162 192.654 355.49 193.699 354.85 194.553C354.21 195.406 353.453 196.185 352.578 196.889C351.704 197.571 350.872 197.913 350.082 197.913C346.925 197.913 345.346 196.142 345.346 192.601C345.346 190.958 345.826 189.315 346.786 187.673C348.109 185.39 349.741 184.249 351.682 184.249C353.048 184.249 353.73 184.995 353.73 186.489C353.73 187.598 353.304 188.75 352.45 189.945C351.256 191.566 349.858 192.387 348.258 192.409C348.024 192.409 347.874 192.302 347.81 192.089L347.778 191.961C348.888 191.961 349.944 191.235 350.946 189.785C351.97 188.313 352.482 187.086 352.482 186.105C352.482 185.443 352.226 185.113 351.714 185.113C350.584 185.113 349.528 186.105 348.546 188.089C347.736 189.774 347.33 191.47 347.33 193.177ZM357.105 197.849C356.508 197.849 356.209 197.39 356.209 196.473C356.209 195.982 356.806 192.409 358.001 185.753C358.065 185.305 358.257 185.081 358.577 185.081C358.961 185.081 359.249 185.358 359.441 185.913C359.548 186.211 359.601 186.542 359.601 186.905C359.601 187.246 359.558 187.619 359.473 188.025L358.961 190.585H359.153C361.073 186.275 362.908 184.121 364.657 184.121C365.34 184.121 365.862 184.334 366.225 184.761C366.588 185.166 366.769 185.731 366.769 186.457C366.769 187.182 366.481 188.75 365.905 191.161C365.329 193.571 365.041 195.246 365.041 196.185C365.041 197.571 365.297 198.265 365.809 198.265C365.809 198.414 365.713 198.563 365.521 198.713C365.329 198.862 365.105 198.937 364.849 198.937C363.612 198.937 362.993 197.966 362.993 196.025C362.993 194.83 363.313 193.027 363.953 190.617C364.614 188.185 364.945 186.638 364.945 185.977C364.945 185.294 364.678 184.953 364.145 184.953C363.377 184.953 362.449 185.955 361.361 187.961C360.294 189.966 359.43 191.886 358.769 193.721C358.129 195.534 357.756 196.675 357.649 197.145C357.564 197.614 357.382 197.849 357.105 197.849ZM369.697 183.865C369.697 183.63 369.846 183.513 370.145 183.513H371.809C371.915 183.086 372.054 182.553 372.225 181.913L372.673 180.249C372.801 179.758 372.907 179.31 372.993 178.905C373.099 178.499 373.291 178.297 373.569 178.297C373.931 178.297 374.187 178.574 374.337 179.129C374.401 179.363 374.433 179.651 374.433 179.993C374.433 180.334 374.369 180.771 374.241 181.305L373.633 183.513H375.617C375.809 183.513 375.937 183.577 376.001 183.705C376.086 183.833 376.086 183.961 376.001 184.089C375.937 184.195 375.809 184.249 375.617 184.249H373.441C372.118 189.219 371.457 192.739 371.457 194.809C371.457 196.323 371.798 197.081 372.481 197.081C373.035 197.081 373.814 196.345 374.817 194.873C375.819 193.401 376.683 191.929 377.409 190.457L378.497 188.249H379.361C379.233 188.505 379.062 188.857 378.849 189.305C378.657 189.731 378.262 190.51 377.665 191.641C377.067 192.75 376.491 193.731 375.937 194.585C375.403 195.438 374.795 196.217 374.113 196.921C373.451 197.603 372.833 197.945 372.257 197.945C371.681 197.945 371.179 197.763 370.753 197.401C370.347 197.017 370.091 196.483 369.985 195.801C369.857 195.097 369.793 194.382 369.793 193.657C369.793 191.971 370.39 188.835 371.585 184.249H370.145C369.974 184.249 369.857 184.206 369.793 184.121C369.729 184.014 369.697 183.929 369.697 183.865ZM379.283 193.177C379.283 195.758 380.201 197.049 382.035 197.049C382.718 197.049 383.433 196.75 384.179 196.153C384.947 195.534 385.641 194.798 386.259 193.945C387.625 191.982 388.585 190.382 389.139 189.145L389.555 188.249H390.419C390.057 189.102 389.523 190.158 388.819 191.417C388.115 192.654 387.443 193.699 386.803 194.553C386.163 195.406 385.406 196.185 384.531 196.889C383.657 197.571 382.825 197.913 382.035 197.913C378.878 197.913 377.299 196.142 377.299 192.601C377.299 190.958 377.779 189.315 378.739 187.673C380.062 185.39 381.694 184.249 383.635 184.249C385.001 184.249 385.683 184.995 385.683 186.489C385.683 187.598 385.257 188.75 384.403 189.945C383.209 191.566 381.811 192.387 380.211 192.409C379.977 192.409 379.827 192.302 379.763 192.089L379.731 191.961C380.841 191.961 381.897 191.235 382.899 189.785C383.923 188.313 384.435 187.086 384.435 186.105C384.435 185.443 384.179 185.113 383.667 185.113C382.537 185.113 381.481 186.105 380.499 188.089C379.689 189.774 379.283 191.47 379.283 193.177ZM400.962 179.897C400.343 182.137 399.853 184.003 399.49 185.497C399.149 186.969 398.765 188.686 398.338 190.649C397.933 192.59 397.73 194.147 397.73 195.321C397.73 196.494 397.997 197.081 398.53 197.081C399.106 197.081 399.895 196.345 400.898 194.873C401.922 193.401 402.797 191.929 403.522 190.457L404.578 188.249H405.442C405.314 188.505 405.143 188.857 404.93 189.305C404.738 189.731 404.343 190.51 403.746 191.641C403.149 192.75 402.573 193.731 402.018 194.585C401.485 195.438 400.877 196.217 400.194 196.921C399.511 197.603 398.925 197.945 398.434 197.945C396.898 197.945 396.13 196.814 396.13 194.553C396.13 193.721 396.247 192.633 396.482 191.289H396.226C393.858 195.683 391.938 197.881 390.466 197.881C388.781 197.881 387.938 196.611 387.938 194.073C387.938 192.601 388.322 190.99 389.09 189.241C390.157 186.873 391.511 185.326 393.154 184.601C393.73 184.366 394.306 184.249 394.882 184.249C395.479 184.249 395.949 184.419 396.29 184.761C396.631 185.102 396.802 185.486 396.802 185.913C396.802 186.105 396.695 186.201 396.482 186.201C396.29 186.179 396.194 186.073 396.194 185.881C396.194 185.689 396.087 185.518 395.874 185.369C395.682 185.198 395.394 185.113 395.01 185.113C393.666 185.113 392.45 186.318 391.362 188.729C390.338 190.969 389.826 193.091 389.826 195.097C389.826 196.334 390.093 196.953 390.626 196.953C391.351 196.953 392.258 196.163 393.346 194.585C394.434 193.006 395.383 191.31 396.194 189.497C397.026 187.683 397.613 186.03 397.954 184.537C398.317 183.022 398.861 180.963 399.586 178.361C400.055 176.675 400.674 175.833 401.442 175.833C401.613 175.833 401.741 175.897 401.826 176.025C401.911 176.131 401.943 176.249 401.922 176.377C401.901 176.483 401.581 177.657 400.962 179.897ZM409.594 192.953C409.125 192.953 408.89 192.483 408.89 191.545C408.89 191.331 408.933 190.905 409.018 190.265C409.125 189.625 409.53 186.841 410.234 181.913C410.938 176.963 411.375 173.902 411.546 172.729C411.61 172.281 411.823 172.057 412.186 172.057C412.57 172.057 412.869 172.291 413.082 172.761C413.317 173.209 413.434 173.625 413.434 174.009C413.434 174.371 413.402 174.702 413.338 175.001C413.21 175.705 412.143 181.475 410.138 192.313C410.053 192.739 409.871 192.953 409.594 192.953ZM409.018 195.545C409.509 195.545 409.754 195.875 409.754 196.537C409.754 197.198 409.434 197.731 408.794 198.137C408.474 198.35 408.197 198.457 407.962 198.457C407.621 198.457 407.407 198.318 407.322 198.041C407.514 198.041 407.653 197.838 407.738 197.433C407.823 197.006 407.951 196.59 408.122 196.185C408.314 195.758 408.613 195.545 409.018 195.545Z" fill="black"/>
</svg>
